<svg width="1045" height="920" viewBox="0 0 1045 920" fill="none" xmlns="http://www.w3.org/2000/svg">
<path fill-rule="evenodd" clip-rule="evenodd" d="M390.818 384.716C399.485 377.184 412.21 377.184 437.661 377.184H444.078C397.628 323.293 396.33 241.652 476.483 190.322C505.045 172.031 538.944 172.914 569.329 184.12C589.741 168.604 626.193 153.033 662.643 143.398C663.002 143.303 663.361 143.225 663.719 143.163C651.254 73.2056 705.991 7.59093 766.956 0.899347C798.526 -2.56577 827.511 9.61674 859.622 23.1133C904.488 41.9714 955.459 63.3949 1028.11 48.2838C1038.53 46.1163 1047.75 56.2263 1043.27 65.8839C964.543 235.768 777.422 295.212 698.811 210.391C687.554 198.246 679.146 185.666 673.223 172.974C651.768 175.841 618.664 189.088 600.867 200.153C653.915 235.183 675.737 299.656 609.531 319.589C543.326 339.522 493.06 270.953 543.326 209.026C522.974 205.606 499.442 208.548 475.144 231.278C438.009 266.018 433.388 327.668 486.471 374.249L489.861 377.184L520.048 377.184C545.499 377.184 558.224 377.184 566.891 384.715C575.558 392.247 577.333 404.848 580.882 430.05L583.675 451.006C726.301 463.878 884.95 506.137 907.308 613.505C908.621 619.811 909.702 626.185 910.572 632.601C911.769 632.865 912.833 633.098 913.787 633.306C919.308 634.513 921.154 634.917 923.972 635.96C945.47 643.915 959.059 665.191 957.238 688.041C956.958 691.553 956.062 695.616 954.27 703.742C952.479 711.869 951.583 715.934 950.36 719.239C942.404 740.736 929.937 754.888 907.087 753.067C898.196 808.485 882.54 854.356 876.761 871.29L876.349 872.497C857.151 928.812 758.6 924.972 712.525 881.457C696.962 866.758 689.151 855.447 685.632 846.911C665.279 926.311 589.89 919.853 479.402 919.853C368.914 919.853 292.458 926.42 272.077 846.911C268.558 855.447 260.747 866.759 245.185 881.457C199.109 924.973 100.558 928.812 81.3604 872.498L80.9485 871.29C75.169 854.357 59.5132 808.485 50.6222 753.067C27.7723 754.889 15.305 740.737 7.34957 719.239C6.12659 715.934 5.23077 711.871 3.43912 703.744C1.64747 695.617 0.751646 691.554 0.471639 688.041C-1.34981 665.191 12.2395 643.915 33.7372 635.96C36.5551 634.917 38.4015 634.513 43.9229 633.306L43.9522 633.3C44.8985 633.093 45.9524 632.863 47.1372 632.601C48.0073 626.185 49.0884 619.811 50.4016 613.505C72.759 506.137 231.408 463.878 374.034 451.006L376.827 430.05C380.376 404.848 382.151 392.247 390.818 384.716ZM577.535 219.759C621.051 240.237 624.89 281.899 595.453 291.432C566.015 300.965 534.019 265.834 577.535 219.759ZM358.219 614.444C325.253 591.776 255.306 568.182 203.198 643.557C201.804 645.573 200.584 647.798 200.21 650.22C199.537 654.585 199.796 662.026 207.503 667.133C213.84 671.332 219.79 670.524 223.86 668.947C227.718 667.452 230.246 663.965 232.463 660.472C263.361 611.78 313.075 621.822 345.239 646.279C345.568 646.529 345.894 646.775 346.252 646.982C348.514 648.288 357.734 652.497 366.209 640.255C375.184 627.291 361.117 616.497 358.834 614.869C358.783 614.833 358.733 614.797 358.682 614.762C358.529 614.655 358.379 614.553 358.219 614.444ZM755.027 643.557C702.919 568.182 632.973 591.776 600.006 614.444C599.954 614.479 599.903 614.514 599.853 614.549C599.698 614.655 599.549 614.757 599.391 614.869C597.109 616.497 583.041 627.291 592.017 640.255C600.492 652.497 609.712 648.288 611.973 646.982C612.331 646.775 612.657 646.529 612.986 646.279C645.15 621.822 694.864 611.78 725.762 660.472C727.979 663.965 730.508 667.452 734.365 668.947C738.436 670.524 744.385 671.332 750.722 667.133C758.429 662.026 758.688 654.585 758.015 650.22C757.642 647.798 756.421 645.573 755.027 643.557Z" fill="black"/>
</svg>
