<svg width="22" height="17" viewBox="0 0 22 17" fill="none" xmlns="http://www.w3.org/2000/svg">
<path d="M18.8974 0.388184H2.92186C0.982896 0.388184 0.00877476 1.35303 0.00877476 3.26416V4.12695H21.8105V3.26416C21.8105 1.35303 20.8457 0.388184 18.8974 0.388184ZM3.80321 13.3579C3.25585 13.3579 2.89403 12.9868 2.89403 12.4673V10.751C2.89403 10.2222 3.25585 9.86035 3.80321 9.86035H6.07616C6.62352 9.86035 6.98534 10.2222 6.98534 10.751V12.4673C6.98534 12.9868 6.62352 13.3579 6.07616 13.3579H3.80321ZM2.92186 16.2339H18.8974C20.8457 16.2339 21.8105 15.2783 21.8105 13.3672V6.23291H0.00877476V13.3672C0.00877476 15.2783 0.982896 16.2339 2.92186 16.2339Z" fill="#979592"/>
</svg>
