<svg width="22" height="17" viewBox="0 0 22 17" fill="none" xmlns="http://www.w3.org/2000/svg">
<path d="M18.897 0.388184H2.92137C0.982408 0.388184 0.00828648 1.35303 0.00828648 3.26416V4.12695H21.81V3.26416C21.81 1.35303 20.8452 0.388184 18.897 0.388184ZM3.80272 13.3579C3.25536 13.3579 2.89354 12.9868 2.89354 12.4673V10.751C2.89354 10.2222 3.25536 9.86035 3.80272 9.86035H6.07567C6.62303 9.86035 6.98485 10.2222 6.98485 10.751V12.4673C6.98485 12.9868 6.62303 13.3579 6.07567 13.3579H3.80272ZM2.92137 16.2339H18.897C20.8452 16.2339 21.81 15.2783 21.81 13.3672V6.23291H0.00828648V13.3672C0.00828648 15.2783 0.982408 16.2339 2.92137 16.2339Z" fill="#1C1C1E"/>
</svg>
