<svg width="133" height="49" viewBox="0 0 133 49" fill="none" xmlns="http://www.w3.org/2000/svg">
<path fill-rule="evenodd" clip-rule="evenodd" d="M19.9257 21.6864C20.2637 21.3992 20.7601 21.3992 21.7529 21.3992H22.0032C20.1913 19.3442 20.1407 16.231 23.2672 14.2737C24.3814 13.5762 25.7037 13.6099 26.8889 14.0372C27.6852 13.4456 29.107 12.8518 30.5289 12.4844C30.5429 12.4808 30.5569 12.4778 30.5708 12.4754C30.0846 9.80779 32.2198 7.30575 34.5979 7.05058C35.8293 6.91845 36.9599 7.383 38.2125 7.89765C39.9627 8.61675 41.9509 9.43368 44.7849 8.85746C45.1915 8.77481 45.5509 9.16033 45.3763 9.52859C42.3052 16.0067 35.0061 18.2734 31.9397 15.039C31.5006 14.5759 31.1726 14.0961 30.9416 13.6122C30.1047 13.7215 28.8134 14.2266 28.1191 14.6486C30.1884 15.9844 31.0396 18.4429 28.4571 19.203C25.8746 19.9631 23.9138 17.3483 25.8746 14.9869C25.0807 14.8565 24.1628 14.9687 23.215 15.8354C21.7665 17.1602 21.5862 19.511 23.6568 21.2873L23.7891 21.3992L24.9666 21.3992C25.9594 21.3992 26.4558 21.3992 26.7938 21.6864C27.1319 21.9736 27.2011 22.4541 27.3396 23.4151L27.4485 24.2142C33.012 24.705 39.2005 26.3164 40.0726 30.4106C40.1238 30.6511 40.166 30.8941 40.2 31.1388C40.2467 31.1489 40.2882 31.1578 40.3254 31.1657C40.5407 31.2117 40.6127 31.2271 40.7227 31.2669C41.5612 31.5703 42.0913 32.3815 42.0203 33.2529C42.0093 33.3868 41.9744 33.5417 41.9045 33.8516C41.8346 34.1615 41.7997 34.3165 41.752 34.4425C41.4416 35.2623 40.9553 35.8019 40.064 35.7325C39.7172 37.8457 39.1065 39.5949 38.8811 40.2406L38.865 40.2866C38.1161 42.434 34.2719 42.2876 32.4746 40.6283C31.8676 40.0678 31.5629 39.6364 31.4256 39.3109C30.6317 42.3386 27.691 42.0924 23.3811 42.0924C19.0712 42.0924 16.0889 42.3428 15.2939 39.311C15.1566 39.6365 14.8519 40.0678 14.2449 40.6283C12.4476 42.2876 8.60335 42.434 7.8545 40.2866L7.83843 40.2406C7.61299 39.5949 7.00229 37.8457 6.65548 35.7325C5.76416 35.8019 5.27784 35.2623 4.96752 34.4425C4.91982 34.3165 4.88487 34.1616 4.81499 33.8517C4.7451 33.5418 4.71015 33.3868 4.69923 33.2529C4.62818 32.3816 5.15827 31.5703 5.99683 31.2669C6.10676 31.2271 6.17878 31.2117 6.39415 31.1657L6.3953 31.1655C6.43221 31.1576 6.47332 31.1488 6.51954 31.1388C6.55348 30.8942 6.59565 30.6511 6.64688 30.4106C7.51898 26.3164 13.7075 24.705 19.2709 24.2142L19.3799 23.4151C19.5184 22.4541 19.5876 21.9736 19.9257 21.6864ZM27.209 15.3962C28.9065 16.1771 29.0562 17.7657 27.9079 18.1293C26.7597 18.4928 25.5116 17.1532 27.209 15.3962ZM18.6541 30.4464C17.3681 29.5821 14.6397 28.6824 12.6071 31.5566C12.5527 31.6335 12.5051 31.7183 12.4905 31.8107C12.4643 31.9771 12.4744 32.2609 12.775 32.4556C13.0222 32.6157 13.2543 32.5849 13.4131 32.5248C13.5635 32.4678 13.6622 32.3348 13.7486 32.2016C14.9539 30.3449 16.8931 30.7278 18.1477 31.6604C18.1606 31.6699 18.1733 31.6793 18.1873 31.6872C18.2755 31.737 18.6351 31.8975 18.9657 31.4307C19.3158 30.9363 18.7671 30.5247 18.6781 30.4627C18.6761 30.4613 18.6741 30.4599 18.6721 30.4586C18.6661 30.4545 18.6603 30.4506 18.6541 30.4464ZM34.1325 31.5566C32.0999 28.6824 29.3715 29.5821 28.0856 30.4464C28.0835 30.4478 28.0815 30.4491 28.0796 30.4504C28.0735 30.4545 28.0677 30.4584 28.0616 30.4627C27.9725 30.5247 27.4238 30.9363 27.7739 31.4307C28.1045 31.8975 28.4642 31.737 28.5524 31.6872C28.5663 31.6793 28.579 31.6699 28.5919 31.6604C29.8465 30.7278 31.7857 30.3449 32.991 32.2016C33.0775 32.3348 33.1761 32.4678 33.3266 32.5248C33.4854 32.5849 33.7174 32.6157 33.9646 32.4556C34.2652 32.2609 34.2753 31.9771 34.2491 31.8107C34.2345 31.7183 34.1869 31.6335 34.1325 31.5566Z" fill="white" fill-opacity="0.4"/>
<path d="M67.3886 28.5021C67.3886 28.9334 67.031 29.283 66.5898 29.283H53.6093C53.0579 29.283 52.6108 29.72 52.6108 30.2591V40.8985C52.6108 41.4376 53.0579 41.8746 53.6093 41.8746H72.2277C72.7791 41.8746 73.2262 41.4376 73.2262 40.8985V37.3846C73.2262 36.8455 72.7791 36.4085 72.2277 36.4085H58.5876C58.5403 36.4085 58.502 36.371 58.502 36.3248V36.2416C58.502 36.2414 58.5017 36.2411 58.5015 36.2411C58.5012 36.2411 58.5009 36.2409 58.5009 36.2406V35.537C58.5009 35.148 58.8234 34.8328 59.2213 34.8328H72.2277C72.7791 34.8328 73.2262 34.3958 73.2262 33.8567V23.1336C73.2262 22.5945 72.7791 22.1575 72.2277 22.1575H53.6093C53.0579 22.1575 52.6108 22.5945 52.6108 23.1336V26.7451C52.6108 27.2842 53.0579 27.7212 53.6093 27.7212H66.5898C67.031 27.7212 67.3886 28.0708 67.3886 28.5021Z" fill="white" fill-opacity="0.4"/>
<path d="M116.506 23.1336C116.506 22.5945 116.953 22.1575 117.505 22.1575H121.398C121.949 22.1575 122.396 22.5945 122.396 23.1336V26.7451C122.396 27.2842 121.949 27.7212 121.398 27.7212H117.505C116.953 27.7212 116.506 27.2842 116.506 26.7451V23.1336Z" fill="white" fill-opacity="0.4"/>
<path d="M116.506 30.2591C116.506 29.72 116.953 29.283 117.505 29.283H121.398C121.949 29.283 122.396 29.72 122.396 30.2591V40.8985C122.396 41.4376 121.949 41.8746 121.398 41.8746H117.505C116.953 41.8746 116.506 41.4376 116.506 40.8985V30.2591Z" fill="white" fill-opacity="0.4"/>
<path d="M105.092 28.5021C105.092 28.9334 104.735 29.283 104.293 29.283H91.2978C90.7464 29.283 90.2993 29.72 90.2993 30.2591V40.8985C90.2993 41.4376 90.7464 41.8746 91.2978 41.8746H109.916C110.468 41.8746 110.915 41.4376 110.915 40.8985V37.3846C110.915 36.8455 110.468 36.4085 109.916 36.4085H96.9045C96.4633 36.4085 96.1057 36.0589 96.1057 35.6276V34.8876C96.1057 34.865 96.1244 34.8467 96.1476 34.8467H96.1823C96.1862 34.8467 96.1894 34.8436 96.1894 34.8397C96.1894 34.8359 96.1926 34.8328 96.1965 34.8328H109.916C110.468 34.8328 110.915 34.3958 110.915 33.8567V23.1336C110.915 22.5945 110.468 22.1575 109.916 22.1575H91.2978C90.7464 22.1575 90.2993 22.5945 90.2993 23.1336V26.7451C90.2993 27.2842 90.7464 27.7212 91.2978 27.7212H104.293C104.735 27.7212 105.092 28.0708 105.092 28.5021Z" fill="white" fill-opacity="0.4"/>
<path d="M78.8176 23.1336C78.8176 22.5945 79.2647 22.1575 79.8161 22.1575H83.7093C84.2607 22.1575 84.7078 22.5945 84.7078 23.1336V26.7451C84.7078 27.2842 84.2607 27.7212 83.7093 27.7212H79.8161C79.2647 27.7212 78.8176 27.2842 78.8176 26.7451V23.1336Z" fill="white" fill-opacity="0.4"/>
<path d="M78.8176 30.2591C78.8176 29.72 79.2647 29.283 79.8161 29.283H83.7093C84.2607 29.283 84.7078 29.72 84.7078 30.2591V40.8985C84.7078 41.4376 84.2607 41.8746 83.7093 41.8746H79.8161C79.2647 41.8746 78.8176 41.4376 78.8176 40.8985V30.2591Z" fill="white" fill-opacity="0.4"/>
<path d="M45.5679 9.43903C42.4247 16.1007 34.925 18.4348 31.7764 15.1137C28.4869 11.644 31.2768 7.26691 34.5026 6.92079C37.5353 6.59539 39.9717 9.79854 44.9755 8.7688C45.3818 8.68519 45.7418 9.07046 45.5679 9.43903Z" fill="#23D67D"/>
</svg>
