<svg width="44" height="40" viewBox="0 0 44 40" fill="none" xmlns="http://www.w3.org/2000/svg">
<path fill-rule="evenodd" clip-rule="evenodd" d="M16.4662 16.8985C16.8304 16.582 17.3651 16.582 18.4347 16.582H18.7043C16.7523 14.3173 16.6978 10.8864 20.0661 8.72939C21.2664 7.96074 22.6909 7.99783 23.9678 8.46875C24.8256 7.81674 26.3574 7.16238 27.8892 6.75747C27.9042 6.75348 27.9193 6.75021 27.9344 6.74763C27.4105 3.80776 29.7108 1.05041 32.2728 0.769212C33.5994 0.623596 34.8175 1.13555 36.1669 1.70272C38.0523 2.4952 40.1943 3.39548 43.2475 2.76047C43.6854 2.66938 44.0726 3.09424 43.8845 3.50008C40.576 10.6392 32.7126 13.1372 29.4091 9.57277C28.936 9.06238 28.5827 8.53371 28.3338 8.00038C27.4322 8.12086 26.041 8.67752 25.2931 9.14251C27.5224 10.6146 28.4394 13.324 25.6572 14.1616C22.8751 14.9993 20.7627 12.1178 22.8751 9.51538C22.0198 9.37167 21.0309 9.49528 20.0098 10.4505C18.4493 11.9104 18.2551 14.5011 20.4858 16.4586L20.6283 16.582L21.8969 16.5819C22.9664 16.5819 23.5012 16.5819 23.8654 16.8984C24.2296 17.2149 24.3041 17.7445 24.4533 18.8036L24.5707 19.6842C30.5643 20.2251 37.2313 22.001 38.1708 26.5129C38.226 26.778 38.2714 27.0458 38.308 27.3154C38.3583 27.3265 38.403 27.3363 38.4431 27.3451C38.6751 27.3958 38.7527 27.4128 38.8711 27.4566C39.7745 27.7909 40.3456 28.685 40.269 29.6452C40.2573 29.7928 40.2196 29.9635 40.1443 30.305C40.069 30.6465 40.0314 30.8174 39.98 30.9562C39.6457 31.8596 39.1218 32.4544 38.1615 32.3778C37.7879 34.7067 37.13 36.6343 36.8871 37.3459L36.8698 37.3967C36.063 39.7632 31.9216 39.6019 29.9854 37.7732C29.3314 37.1555 29.0031 36.6802 28.8552 36.3215C28.1243 39.1729 24.0296 39.1722 20.3545 39.1716H20.023C16.3466 39.1722 12.2072 39.173 11.4763 36.3215C11.3284 36.6802 11.0002 37.1555 10.3462 37.7732C8.40992 39.6019 4.26848 39.7632 3.46173 37.3967L3.44442 37.346C3.20155 36.6343 2.54364 34.7067 2.17001 32.3778C1.20978 32.4544 0.685864 31.8596 0.351549 30.9562C0.300156 30.8174 0.26251 30.6466 0.187219 30.3051C0.111928 29.9636 0.0742826 29.7928 0.0625158 29.6452C-0.0140276 28.685 0.557042 27.7909 1.46044 27.4566C1.57886 27.4128 1.65645 27.3958 1.88848 27.3451L1.88972 27.3448C1.92948 27.3361 1.97377 27.3264 2.02356 27.3154C2.06012 27.0458 2.10556 26.778 2.16074 26.5129C3.10027 22.001 9.76725 20.2251 15.7608 19.6842L15.8782 18.8036C16.0274 17.7445 16.102 17.215 16.4662 16.8985ZM24.3126 9.96642C26.1413 10.827 26.3027 12.5778 25.0656 12.9784C23.8285 13.379 22.4839 11.9027 24.3126 9.96642ZM15.0963 26.5524C13.7109 25.5998 10.7715 24.6083 8.58176 27.7758C8.52318 27.8606 8.47189 27.954 8.4562 28.0558C8.42793 28.2393 8.4388 28.552 8.76267 28.7666C9.02897 28.943 9.27899 28.9091 9.45004 28.8428C9.61215 28.78 9.71842 28.6334 9.81157 28.4867C11.11 26.4405 13.1992 26.8625 14.5508 27.8902C14.5646 27.9008 14.5783 27.9111 14.5934 27.9197C14.6884 27.9747 15.0759 28.1515 15.432 27.6371C15.8092 27.0923 15.218 26.6387 15.1221 26.5703C15.12 26.5688 15.1178 26.5673 15.1157 26.5658C15.1093 26.5613 15.103 26.557 15.0963 26.5524ZM31.7715 27.7758C29.5817 24.6083 26.6423 25.5998 25.257 26.5524C25.2548 26.5539 25.2526 26.5554 25.2505 26.5568C25.244 26.5613 25.2377 26.5656 25.2311 26.5703C25.1352 26.6387 24.544 27.0923 24.9212 27.6371C25.2774 28.1515 25.6648 27.9747 25.7599 27.9197C25.7749 27.9111 25.7886 27.9008 25.8024 27.8902C27.1541 26.8625 29.2432 26.4405 30.5417 28.4867C30.6348 28.6334 30.7411 28.78 30.9032 28.8428C31.0742 28.9091 31.3243 28.943 31.5906 28.7666C31.9144 28.552 31.9253 28.2393 31.897 28.0558C31.8813 27.954 31.83 27.8606 31.7715 27.7758Z" fill="black"/>
</svg>
