<svg id="svg" version="1.1" xmlns="http://www.w3.org/2000/svg" xmlns:xlink="http://www.w3.org/1999/xlink" width="400" height="106.90335305719921" viewBox="0, 0, 400,106.90335305719921"><g id="svgg"><path id="path0" d="M90.167 7.931 C 89.938 8.058,89.506 8.163,89.208 8.164 C 88.910 8.166,88.667 8.242,88.667 8.333 C 88.667 8.425,88.409 8.500,88.093 8.500 C 87.778 8.500,87.473 8.575,87.417 8.667 C 87.360 8.758,87.173 8.833,87.002 8.833 C 86.831 8.833,86.578 8.946,86.440 9.083 C 86.303 9.221,86.035 9.333,85.845 9.333 C 85.655 9.333,85.500 9.408,85.500 9.500 C 85.500 9.592,85.313 9.667,85.083 9.667 C 84.854 9.667,84.667 9.742,84.667 9.833 C 84.667 9.925,84.572 10.000,84.457 10.000 C 84.341 10.000,84.044 10.188,83.797 10.417 C 83.550 10.646,83.227 10.833,83.079 10.833 C 82.773 10.833,82.333 11.220,82.333 11.488 C 82.333 11.586,82.255 11.667,82.160 11.667 C 81.767 11.667,79.500 13.933,79.500 14.326 C 79.500 14.422,79.425 14.500,79.333 14.500 C 79.242 14.500,79.167 14.650,79.167 14.833 C 79.167 15.019,79.056 15.167,78.917 15.167 C 78.779 15.167,78.667 15.279,78.667 15.417 C 78.667 15.554,78.592 15.667,78.500 15.667 C 78.408 15.667,78.331 15.798,78.328 15.958 C 78.325 16.119,78.213 16.396,78.078 16.574 C 77.943 16.751,77.833 17.033,77.833 17.199 C 77.833 17.364,77.758 17.500,77.667 17.500 C 77.575 17.500,77.500 17.762,77.500 18.083 C 77.500 18.404,77.425 18.667,77.333 18.667 C 77.242 18.667,77.167 18.935,77.167 19.262 C 77.167 19.589,77.054 19.970,76.917 20.107 C 76.765 20.259,76.667 20.667,76.667 21.145 C 76.667 21.579,76.587 22.013,76.489 22.111 C 76.145 22.455,76.583 28.333,76.962 28.460 C 77.087 28.501,77.167 28.848,77.167 29.347 C 77.167 29.798,77.242 30.167,77.333 30.167 C 77.425 30.167,77.500 30.399,77.500 30.683 C 77.500 31.626,77.968 32.167,78.786 32.167 C 79.179 32.167,79.500 32.242,79.500 32.333 C 79.500 32.429,80.023 32.500,80.736 32.500 C 81.577 32.500,81.994 32.567,82.041 32.708 C 82.157 33.055,89.470 33.104,89.603 32.759 C 89.681 32.555,89.981 32.500,91.008 32.500 C 91.726 32.500,92.360 32.425,92.417 32.333 C 92.473 32.242,92.772 32.167,93.081 32.167 C 93.390 32.167,93.755 32.054,93.893 31.917 C 94.033 31.776,94.440 31.667,94.821 31.667 C 95.195 31.667,95.500 31.592,95.500 31.500 C 95.500 31.408,95.683 31.333,95.907 31.333 C 96.131 31.333,96.360 31.258,96.417 31.167 C 96.473 31.075,96.694 31.000,96.906 31.000 C 97.119 31.000,97.386 30.887,97.500 30.750 C 97.614 30.612,97.848 30.500,98.020 30.500 C 98.193 30.500,98.333 30.425,98.333 30.333 C 98.333 30.242,98.521 30.167,98.750 30.167 C 98.979 30.167,99.167 30.092,99.167 30.000 C 99.167 29.908,99.274 29.833,99.405 29.833 C 99.536 29.833,99.742 29.735,99.863 29.615 C 99.984 29.495,100.327 29.289,100.625 29.157 C 100.923 29.026,101.167 28.824,101.167 28.709 C 101.167 28.594,101.303 28.500,101.469 28.500 C 101.635 28.500,101.931 28.350,102.128 28.167 C 102.325 27.983,102.567 27.833,102.665 27.833 C 102.763 27.833,102.887 27.721,102.940 27.583 C 102.992 27.446,103.140 27.333,103.268 27.333 C 103.396 27.333,103.500 27.271,103.500 27.195 C 103.500 27.119,103.688 26.956,103.917 26.833 C 104.146 26.711,104.333 26.538,104.333 26.450 C 104.333 26.276,105.176 25.501,105.365 25.500 C 105.499 25.500,106.663 24.295,106.665 24.154 C 106.666 24.102,107.042 23.657,107.500 23.167 C 107.958 22.676,108.333 22.175,108.333 22.054 C 108.333 21.933,108.408 21.833,108.500 21.833 C 108.592 21.833,108.667 21.721,108.667 21.583 C 108.667 21.446,108.742 21.333,108.833 21.333 C 108.925 21.333,109.000 21.183,109.000 21.000 C 109.000 20.817,109.094 20.667,109.209 20.667 C 109.324 20.667,109.526 20.423,109.657 20.125 C 109.789 19.827,109.995 19.484,110.115 19.363 C 110.235 19.242,110.333 19.036,110.333 18.905 C 110.333 18.774,110.408 18.667,110.500 18.667 C 110.592 18.667,110.667 18.554,110.667 18.417 C 110.667 18.279,110.742 18.167,110.833 18.167 C 110.925 18.167,111.000 18.053,111.000 17.913 C 111.000 17.774,111.188 17.363,111.417 17.000 C 111.646 16.637,111.833 16.226,111.833 16.087 C 111.833 15.947,111.908 15.833,112.000 15.833 C 112.092 15.833,112.167 15.616,112.167 15.351 C 112.167 15.076,112.274 14.828,112.417 14.773 C 112.554 14.720,112.667 14.492,112.667 14.265 C 112.667 14.038,112.742 13.807,112.833 13.750 C 112.925 13.693,113.000 13.468,113.000 13.250 C 113.000 13.032,113.075 12.807,113.167 12.750 C 113.258 12.693,113.333 12.434,113.333 12.175 C 113.333 11.909,113.442 11.660,113.583 11.606 C 113.728 11.551,113.833 11.302,113.833 11.015 C 113.833 10.743,113.908 10.473,114.000 10.417 C 114.092 10.360,114.167 10.088,114.167 9.812 C 114.167 9.535,114.283 9.193,114.426 9.051 C 114.579 8.897,114.664 8.579,114.634 8.271 C 114.574 7.652,113.111 7.382,112.673 7.909 C 112.540 8.070,112.185 8.167,111.730 8.167 C 111.328 8.167,111.000 8.242,111.000 8.333 C 111.000 8.440,109.444 8.500,106.667 8.500 C 104.283 8.500,102.333 8.436,102.333 8.357 C 102.333 8.279,101.743 8.174,101.021 8.124 C 100.300 8.075,99.554 7.952,99.365 7.851 C 98.825 7.561,90.705 7.632,90.167 7.931 M58.833 50.447 C 55.160 50.687,50.791 53.088,48.578 56.083 C 48.307 56.450,48.047 56.788,48.001 56.833 C 47.350 57.477,46.107 60.425,45.647 62.417 C 45.149 64.578,45.378 71.656,45.998 73.250 C 48.149 78.775,51.441 81.903,56.583 83.305 C 58.394 83.799,59.898 83.833,79.858 83.833 C 99.765 83.833,100.956 83.806,103.000 83.312 C 108.610 81.954,112.962 77.294,114.110 71.417 C 114.309 70.398,114.262 63.714,114.048 62.583 C 113.038 57.249,108.919 52.582,103.917 51.102 C 103.367 50.939,102.692 50.720,102.417 50.615 C 101.948 50.435,61.402 50.279,58.833 50.447 M102.083 54.649 C 107.944 56.630,110.250 60.140,110.250 67.083 C 110.250 73.916,107.540 77.992,102.059 79.403 C 100.505 79.803,59.162 79.803,57.607 79.403 C 53.676 78.391,50.700 75.320,49.663 71.206 C 49.288 69.718,49.196 64.905,49.516 63.532 C 50.264 60.320,51.322 58.500,53.400 56.847 C 55.003 55.571,56.452 54.938,58.917 54.436 C 59.926 54.231,101.451 54.435,102.083 54.649 " stroke="none" fill="#26d27d" fill-rule="evenodd"></path><path id="path1" d="M72.583 35.500 C 72.526 35.593,71.759 35.667,70.857 35.667 C 69.964 35.667,69.162 35.734,69.075 35.817 C 68.949 35.937,67.958 36.074,66.615 36.158 C 66.541 36.163,66.527 36.242,66.583 36.333 C 66.673 36.479,65.391 36.601,64.708 36.512 C 64.594 36.498,64.500 36.564,64.500 36.659 C 64.500 36.755,64.168 36.833,63.762 36.833 C 63.339 36.833,62.921 36.937,62.782 37.075 C 62.649 37.209,62.226 37.336,61.842 37.359 C 61.459 37.381,61.108 37.460,61.063 37.533 C 61.017 37.607,60.737 37.667,60.440 37.667 C 60.143 37.667,59.825 37.741,59.734 37.832 C 59.643 37.923,59.347 38.012,59.076 38.029 C 58.805 38.046,58.471 38.149,58.333 38.258 C 58.103 38.440,57.825 38.526,56.667 38.771 C 56.215 38.866,55.722 39.056,54.872 39.462 C 54.573 39.605,54.216 39.722,54.080 39.722 C 53.945 39.722,53.833 39.785,53.833 39.861 C 53.833 39.938,53.732 40.000,53.609 40.000 C 53.275 40.000,52.333 40.501,52.333 40.679 C 52.333 40.764,52.152 40.833,51.930 40.833 C 51.522 40.833,50.463 41.311,50.361 41.542 C 50.331 41.610,50.156 41.667,49.974 41.667 C 49.792 41.667,49.530 41.780,49.391 41.918 C 49.253 42.057,49.071 42.127,48.987 42.075 C 48.902 42.023,48.833 42.060,48.833 42.157 C 48.833 42.254,48.726 42.333,48.595 42.333 C 48.464 42.333,48.258 42.432,48.137 42.552 C 48.016 42.672,47.673 42.878,47.375 43.009 C 47.077 43.141,46.833 43.305,46.833 43.374 C 46.833 43.443,46.681 43.500,46.495 43.500 C 46.309 43.500,46.113 43.612,46.060 43.750 C 46.008 43.887,45.860 44.000,45.732 44.000 C 45.604 44.000,45.500 44.075,45.500 44.167 C 45.500 44.258,45.350 44.333,45.167 44.333 C 44.967 44.333,44.833 44.444,44.833 44.611 C 44.833 44.764,44.785 44.841,44.727 44.782 C 44.602 44.658,43.667 45.176,43.667 45.369 C 43.667 45.441,43.554 45.500,43.417 45.500 C 43.279 45.500,43.167 45.612,43.167 45.750 C 43.167 45.889,43.019 46.000,42.833 46.000 C 42.650 46.000,42.500 46.075,42.500 46.167 C 42.500 46.258,42.421 46.333,42.324 46.333 C 42.228 46.333,41.909 46.558,41.616 46.833 C 41.323 47.107,41.034 47.332,40.974 47.333 C 40.790 47.334,39.333 48.809,39.333 48.994 C 39.333 49.089,39.252 49.167,39.152 49.167 C 38.866 49.167,36.560 51.594,36.310 52.158 C 36.187 52.438,36.023 52.667,35.947 52.667 C 35.743 52.667,35.333 53.114,35.333 53.337 C 35.333 53.615,34.731 54.342,34.605 54.217 C 34.547 54.159,34.500 54.236,34.500 54.389 C 34.500 54.542,34.425 54.667,34.333 54.667 C 34.242 54.667,34.167 54.809,34.167 54.982 C 34.167 55.156,34.049 55.343,33.906 55.398 C 33.763 55.453,33.688 55.567,33.741 55.652 C 33.793 55.737,33.723 55.920,33.585 56.058 C 33.447 56.196,33.333 56.423,33.333 56.562 C 33.333 56.700,33.258 56.860,33.167 56.917 C 33.075 56.973,33.000 57.203,33.000 57.427 C 33.000 57.677,32.904 57.833,32.750 57.833 C 32.611 57.833,32.500 57.981,32.500 58.167 C 32.500 58.350,32.425 58.500,32.333 58.500 C 32.242 58.500,32.167 58.721,32.167 58.990 C 32.167 59.260,32.092 59.527,32.000 59.583 C 31.908 59.640,31.833 59.936,31.833 60.242 C 31.833 60.582,31.736 60.835,31.583 60.894 C 31.419 60.957,31.333 61.217,31.333 61.652 C 31.333 62.016,31.258 62.360,31.167 62.417 C 31.075 62.473,31.000 62.841,31.000 63.234 C 31.000 63.627,30.888 64.174,30.750 64.449 C 30.401 65.149,30.510 69.732,30.884 70.106 C 30.948 70.170,31.000 70.532,31.000 70.911 C 31.000 71.290,31.069 71.671,31.152 71.758 C 31.236 71.845,31.327 72.142,31.354 72.417 C 31.381 72.692,31.490 73.029,31.597 73.167 C 31.792 73.419,31.949 73.965,32.113 74.958 C 32.163 75.256,32.270 75.500,32.352 75.500 C 32.433 75.500,32.500 75.690,32.500 75.922 C 32.500 76.154,32.612 76.387,32.750 76.440 C 32.887 76.492,33.000 76.640,33.000 76.768 C 33.000 76.896,33.075 77.000,33.167 77.000 C 33.258 77.000,33.333 77.155,33.333 77.345 C 33.333 77.535,33.447 77.804,33.585 77.942 C 33.723 78.080,33.793 78.263,33.741 78.348 C 33.688 78.433,33.763 78.547,33.906 78.602 C 34.049 78.657,34.167 78.844,34.167 79.018 C 34.167 79.191,34.226 79.333,34.298 79.333 C 34.371 79.333,34.647 79.706,34.913 80.161 C 35.179 80.616,35.500 81.028,35.626 81.076 C 35.751 81.125,35.815 81.228,35.767 81.305 C 35.719 81.383,35.972 81.751,36.330 82.123 C 36.687 82.494,36.934 82.844,36.878 82.899 C 36.823 82.955,36.873 83.000,36.989 83.000 C 37.205 83.000,38.825 84.650,38.830 84.875 C 38.832 84.944,38.950 85.000,39.093 85.000 C 39.236 85.000,39.307 85.075,39.250 85.167 C 39.193 85.258,39.226 85.333,39.322 85.333 C 39.607 85.333,40.158 85.880,40.049 86.055 C 39.993 86.146,40.034 86.165,40.142 86.099 C 40.250 86.032,40.380 86.094,40.436 86.239 C 40.491 86.383,40.645 86.500,40.778 86.500 C 40.911 86.500,40.973 86.575,40.917 86.667 C 40.860 86.759,40.980 86.833,41.185 86.833 C 41.389 86.833,41.508 86.881,41.450 86.939 C 41.327 87.062,42.049 87.667,42.318 87.667 C 42.418 87.667,42.500 87.779,42.500 87.917 C 42.500 88.142,42.698 88.241,43.042 88.186 C 43.110 88.176,43.167 88.242,43.167 88.333 C 43.167 88.425,43.279 88.500,43.417 88.500 C 43.554 88.500,43.667 88.575,43.667 88.667 C 43.667 88.758,43.784 88.833,43.927 88.833 C 44.069 88.833,44.143 88.903,44.091 88.988 C 44.038 89.073,44.154 89.193,44.349 89.255 C 44.543 89.317,44.847 89.491,45.023 89.642 C 45.200 89.793,45.417 89.926,45.505 89.938 C 45.594 89.949,45.742 89.968,45.833 89.979 C 45.925 89.991,46.000 90.117,46.000 90.260 C 46.000 90.403,46.056 90.486,46.125 90.446 C 46.284 90.351,47.354 90.923,47.238 91.040 C 47.190 91.088,47.342 91.175,47.576 91.233 C 47.809 91.292,48.000 91.413,48.000 91.503 C 48.000 91.593,48.150 91.667,48.333 91.667 C 48.517 91.667,48.667 91.742,48.667 91.833 C 48.667 91.925,48.820 92.000,49.007 92.000 C 49.194 92.000,49.505 92.147,49.699 92.328 C 49.892 92.508,50.114 92.616,50.192 92.568 C 50.270 92.520,50.333 92.560,50.333 92.657 C 50.333 92.754,50.479 92.833,50.657 92.833 C 50.835 92.833,51.027 92.908,51.083 93.000 C 51.140 93.092,51.324 93.167,51.492 93.167 C 51.660 93.167,51.841 93.279,51.894 93.417 C 51.946 93.554,52.129 93.667,52.300 93.667 C 52.471 93.667,52.663 93.719,52.727 93.783 C 52.791 93.846,52.969 93.917,53.123 93.940 C 53.277 93.962,53.556 94.054,53.743 94.144 C 53.930 94.234,54.293 94.353,54.548 94.409 C 54.804 94.464,54.978 94.567,54.935 94.636 C 54.893 94.706,55.054 94.779,55.294 94.799 C 55.535 94.819,55.773 94.891,55.824 94.960 C 55.875 95.028,56.142 95.110,56.417 95.142 C 56.692 95.173,57.019 95.283,57.143 95.385 C 57.268 95.488,57.567 95.598,57.807 95.630 C 58.047 95.662,58.283 95.740,58.330 95.803 C 58.378 95.866,58.642 95.944,58.917 95.976 C 59.192 96.008,59.454 96.085,59.500 96.148 C 59.546 96.211,59.883 96.285,60.250 96.314 C 60.617 96.343,60.968 96.449,61.031 96.551 C 61.095 96.653,61.456 96.749,61.835 96.763 C 62.214 96.778,62.608 96.875,62.712 96.978 C 62.815 97.082,63.181 97.167,63.523 97.167 C 63.866 97.167,64.193 97.242,64.250 97.333 C 64.307 97.425,64.801 97.500,65.348 97.500 C 66.001 97.500,66.372 97.573,66.425 97.712 C 66.477 97.848,66.912 97.942,67.628 97.974 C 68.245 98.000,68.821 98.092,68.908 98.178 C 68.995 98.263,69.727 98.333,70.533 98.333 C 71.594 98.333,72.001 98.391,72.003 98.542 C 72.004 98.694,72.044 98.689,72.149 98.523 C 72.271 98.331,72.305 98.331,72.369 98.523 C 72.431 98.710,73.739 98.752,79.764 98.759 C 87.164 98.769,87.888 98.743,87.472 98.479 C 87.342 98.397,87.924 98.337,88.875 98.336 C 90.061 98.334,90.501 98.277,90.503 98.125 C 90.504 97.972,90.544 97.977,90.649 98.144 C 90.748 98.301,90.813 98.312,90.857 98.180 C 90.896 98.062,91.356 97.985,92.054 97.980 C 92.871 97.973,93.214 97.905,93.279 97.735 C 93.340 97.574,93.643 97.500,94.234 97.500 C 94.711 97.500,95.171 97.429,95.258 97.342 C 95.345 97.255,95.735 97.166,96.125 97.143 C 96.515 97.120,96.833 97.056,96.833 97.001 C 96.833 96.946,97.110 96.883,97.449 96.860 C 97.787 96.837,98.293 96.716,98.574 96.591 C 98.854 96.466,99.271 96.327,99.500 96.282 C 100.491 96.087,101.945 95.631,102.286 95.408 C 102.489 95.275,102.925 95.167,103.254 95.167 C 103.611 95.167,103.811 95.099,103.750 95.000 C 103.690 94.903,103.853 94.833,104.136 94.833 C 104.406 94.833,104.719 94.721,104.833 94.583 C 104.947 94.446,105.219 94.333,105.437 94.333 C 105.655 94.333,105.833 94.258,105.833 94.167 C 105.833 94.075,105.959 94.000,106.113 94.000 C 106.531 94.000,107.500 93.621,107.500 93.457 C 107.500 93.378,107.575 93.360,107.667 93.417 C 107.758 93.473,107.833 93.440,107.833 93.343 C 107.833 93.246,108.021 93.167,108.250 93.167 C 108.479 93.167,108.667 93.092,108.667 93.000 C 108.667 92.908,108.846 92.833,109.066 92.833 C 109.285 92.833,109.508 92.721,109.560 92.583 C 109.613 92.446,109.775 92.333,109.921 92.333 C 110.067 92.333,110.140 92.258,110.083 92.167 C 110.027 92.075,110.120 92.000,110.290 92.000 C 110.671 92.000,111.497 91.630,111.499 91.458 C 111.499 91.390,111.650 91.333,111.833 91.333 C 112.019 91.333,112.167 91.222,112.167 91.083 C 112.167 90.946,112.268 90.833,112.391 90.833 C 112.715 90.833,113.529 90.403,113.954 90.007 C 114.155 89.820,114.416 89.664,114.535 89.661 C 114.832 89.654,115.333 89.254,115.333 89.023 C 115.333 88.919,115.465 88.831,115.625 88.828 C 115.985 88.821,116.500 88.446,116.500 88.190 C 116.500 88.085,116.614 88.000,116.752 88.000 C 117.121 88.000,118.162 87.286,118.165 87.032 C 118.166 86.912,118.242 86.860,118.333 86.917 C 118.425 86.973,118.500 86.944,118.500 86.851 C 118.500 86.758,118.755 86.561,119.067 86.413 C 119.379 86.265,119.671 86.000,119.718 85.823 C 119.764 85.646,119.978 85.430,120.193 85.344 C 120.408 85.258,120.527 85.183,120.458 85.177 C 120.271 85.161,120.972 84.500,121.177 84.500 C 121.274 84.500,121.320 84.444,121.280 84.375 C 121.239 84.306,121.494 84.025,121.845 83.750 C 122.197 83.475,122.488 83.152,122.492 83.032 C 122.497 82.912,122.575 82.860,122.667 82.917 C 122.758 82.973,122.833 82.911,122.833 82.778 C 122.833 82.645,122.951 82.491,123.094 82.436 C 123.237 82.381,123.307 82.258,123.248 82.164 C 123.190 82.069,123.237 82.012,123.353 82.038 C 123.469 82.063,123.594 81.940,123.632 81.766 C 123.670 81.591,123.881 81.255,124.101 81.018 C 124.320 80.781,124.500 80.492,124.500 80.377 C 124.500 80.261,124.566 80.167,124.646 80.167 C 124.727 80.167,124.894 79.923,125.017 79.625 C 125.140 79.327,125.393 78.933,125.579 78.750 C 125.765 78.567,125.941 78.304,125.971 78.167 C 126.002 78.029,126.133 77.798,126.263 77.653 C 126.394 77.508,126.452 77.341,126.393 77.282 C 126.334 77.223,126.409 77.127,126.559 77.069 C 126.710 77.012,126.833 76.827,126.833 76.659 C 126.833 76.491,126.908 76.307,127.000 76.250 C 127.092 76.193,127.167 75.924,127.167 75.652 C 127.167 75.366,127.272 75.116,127.416 75.061 C 127.553 75.008,127.630 74.909,127.588 74.840 C 127.545 74.772,127.618 74.573,127.750 74.400 C 127.882 74.226,127.992 73.765,127.995 73.375 C 127.998 72.985,128.075 72.667,128.167 72.667 C 128.258 72.667,128.333 72.436,128.333 72.155 C 128.333 71.873,128.436 71.540,128.562 71.414 C 128.706 71.271,128.799 70.762,128.814 70.048 C 128.827 69.423,128.886 68.725,128.946 68.497 C 129.145 67.735,129.197 65.655,129.023 65.445 C 128.929 65.332,128.837 64.654,128.818 63.938 C 128.794 63.024,128.717 62.612,128.559 62.551 C 128.431 62.502,128.333 62.220,128.333 61.899 C 128.333 61.588,128.258 61.333,128.167 61.333 C 128.075 61.333,128.000 61.038,128.000 60.677 C 128.000 60.315,127.925 59.973,127.833 59.917 C 127.742 59.860,127.667 59.631,127.667 59.407 C 127.667 59.156,127.571 59.000,127.417 59.000 C 127.242 59.000,127.167 58.824,127.167 58.417 C 127.167 58.096,127.092 57.833,127.000 57.833 C 126.908 57.833,126.833 57.719,126.833 57.580 C 126.833 57.441,126.659 57.047,126.445 56.705 C 126.232 56.363,125.951 55.840,125.821 55.542 C 125.691 55.244,125.491 55.000,125.376 55.000 C 125.261 55.000,125.167 54.864,125.167 54.698 C 125.167 54.532,125.035 54.247,124.875 54.064 C 124.715 53.881,124.508 53.617,124.417 53.476 C 123.849 52.606,123.225 51.845,123.075 51.840 C 122.979 51.836,122.805 51.570,122.688 51.247 C 122.572 50.925,122.420 50.696,122.351 50.739 C 122.231 50.813,121.667 50.262,121.667 50.070 C 121.667 49.941,121.215 49.500,121.083 49.500 C 120.910 49.500,120.500 49.039,120.500 48.845 C 120.500 48.747,120.444 48.667,120.375 48.666 C 120.252 48.666,119.591 48.145,118.893 47.498 C 118.697 47.316,118.453 47.167,118.352 47.167 C 118.250 47.167,118.167 47.096,118.167 47.009 C 118.167 46.923,117.946 46.722,117.676 46.562 C 117.406 46.403,117.223 46.211,117.269 46.136 C 117.315 46.061,117.161 46.000,116.927 46.000 C 116.692 46.000,116.500 45.920,116.500 45.821 C 116.500 45.549,116.058 45.167,115.744 45.167 C 115.590 45.167,115.317 44.978,115.136 44.748 C 114.955 44.518,114.744 44.369,114.667 44.417 C 114.590 44.464,114.414 44.390,114.275 44.252 C 114.137 44.113,113.943 44.000,113.845 44.000 C 113.747 44.000,113.666 43.944,113.666 43.875 C 113.664 43.707,112.701 43.167,112.403 43.167 C 112.273 43.167,112.167 43.092,112.167 43.000 C 112.167 42.908,112.025 42.833,111.851 42.833 C 111.678 42.833,111.492 42.721,111.440 42.583 C 111.387 42.446,111.191 42.333,111.005 42.333 C 110.819 42.333,110.667 42.258,110.667 42.167 C 110.667 42.075,110.566 42.000,110.442 42.000 C 110.156 42.000,109.203 41.528,109.077 41.323 C 109.024 41.237,108.835 41.167,108.657 41.167 C 108.479 41.167,108.333 41.092,108.333 41.000 C 108.333 40.908,108.146 40.833,107.917 40.833 C 107.688 40.833,107.500 40.773,107.500 40.699 C 107.500 40.625,107.181 40.433,106.792 40.272 C 106.402 40.112,105.953 39.910,105.794 39.823 C 105.635 39.737,105.324 39.667,105.103 39.667 C 104.883 39.667,104.659 39.554,104.606 39.417 C 104.554 39.279,104.325 39.167,104.098 39.167 C 103.872 39.167,103.640 39.092,103.583 39.000 C 103.527 38.908,103.302 38.833,103.083 38.833 C 102.865 38.833,102.640 38.758,102.583 38.667 C 102.527 38.575,102.220 38.500,101.902 38.500 C 101.581 38.500,101.286 38.404,101.240 38.284 C 101.194 38.165,100.878 38.049,100.537 38.026 C 100.196 38.004,99.892 37.914,99.861 37.826 C 99.831 37.738,99.516 37.667,99.163 37.667 C 98.809 37.667,98.473 37.592,98.417 37.500 C 98.360 37.408,98.016 37.333,97.652 37.333 C 97.217 37.333,96.957 37.247,96.894 37.083 C 96.826 36.908,96.553 36.833,95.982 36.833 C 95.534 36.833,95.167 36.770,95.167 36.692 C 95.167 36.614,94.710 36.536,94.152 36.519 C 93.595 36.503,92.976 36.387,92.777 36.261 C 92.579 36.136,92.009 36.027,91.511 36.019 C 91.013 36.011,90.563 35.939,90.511 35.858 C 90.459 35.777,89.704 35.696,88.833 35.679 C 87.962 35.661,87.179 35.576,87.092 35.490 C 86.870 35.271,72.719 35.281,72.583 35.500 M100.991 50.189 C 102.688 50.413,104.959 51.072,106.000 51.643 C 106.412 51.869,106.898 52.135,107.078 52.235 C 109.598 53.630,113.318 57.977,113.331 59.542 C 113.332 59.702,113.400 59.833,113.481 59.833 C 113.562 59.833,113.669 60.040,113.719 60.292 C 113.827 60.841,114.135 62.049,114.353 62.776 C 114.585 63.551,114.585 71.363,114.353 71.796 C 114.251 71.988,114.167 72.408,114.167 72.729 C 114.167 73.051,114.092 73.360,114.000 73.417 C 113.908 73.473,113.833 73.694,113.833 73.906 C 113.833 74.119,113.721 74.386,113.583 74.500 C 113.446 74.614,113.333 74.844,113.333 75.011 C 113.333 75.177,113.258 75.360,113.167 75.417 C 113.075 75.473,113.000 75.665,113.000 75.843 C 113.000 76.021,112.926 76.167,112.837 76.167 C 112.747 76.167,112.626 76.354,112.568 76.583 C 112.511 76.813,112.413 77.000,112.351 77.000 C 112.289 77.000,112.098 77.238,111.926 77.529 C 110.589 79.792,105.874 83.333,104.198 83.333 C 104.008 83.333,103.807 83.408,103.750 83.500 C 103.693 83.592,103.436 83.667,103.178 83.667 C 102.920 83.667,102.390 83.779,102.000 83.917 C 101.384 84.134,98.469 84.167,79.724 84.167 C 60.929 84.167,58.079 84.135,57.558 83.917 C 57.229 83.779,56.748 83.667,56.489 83.667 C 56.231 83.667,55.973 83.592,55.917 83.500 C 55.860 83.408,55.631 83.333,55.408 83.333 C 54.976 83.333,51.788 81.750,51.694 81.489 C 51.664 81.403,51.567 81.333,51.479 81.333 C 51.058 81.333,48.476 78.734,47.724 77.554 C 47.559 77.295,47.385 77.046,47.337 77.000 C 47.081 76.755,46.000 74.476,46.000 74.180 C 46.000 73.989,45.925 73.833,45.833 73.833 C 45.742 73.833,45.667 73.617,45.667 73.352 C 45.667 73.088,45.555 72.657,45.418 72.394 C 45.281 72.131,45.168 71.601,45.168 71.215 C 45.167 70.829,45.082 69.943,44.978 69.245 C 44.845 68.350,44.841 67.870,44.965 67.613 C 45.062 67.414,45.182 66.130,45.233 64.762 C 45.284 63.394,45.403 62.197,45.496 62.104 C 45.590 62.010,45.667 61.727,45.667 61.475 C 45.667 61.222,45.733 60.843,45.815 60.633 C 46.245 59.524,46.584 58.741,46.667 58.667 C 46.718 58.621,46.900 58.265,47.072 57.875 C 47.243 57.485,47.448 57.167,47.525 57.167 C 47.603 57.167,47.667 57.054,47.667 56.917 C 47.667 56.779,47.737 56.667,47.822 56.667 C 47.908 56.667,48.023 56.524,48.078 56.349 C 48.299 55.653,51.209 52.998,52.588 52.235 C 52.769 52.135,53.254 51.869,53.667 51.643 C 54.649 51.105,56.952 50.410,58.417 50.210 C 60.170 49.970,99.193 49.951,100.991 50.189 M26.583 50.833 C 26.648 50.938,26.190 51.009,25.343 51.025 C 23.590 51.058,23.603 51.056,23.461 51.250 C 23.386 51.352,23.337 51.332,23.336 51.198 C 23.334 51.079,23.257 51.027,23.164 51.085 C 23.071 51.143,23.028 51.244,23.069 51.309 C 23.109 51.375,22.942 51.444,22.696 51.463 C 22.451 51.481,22.100 51.561,21.917 51.640 C 21.315 51.899,20.421 52.197,20.208 52.210 C 20.094 52.217,20.000 52.322,20.000 52.444 C 20.000 52.570,19.819 52.667,19.583 52.667 C 19.354 52.667,19.167 52.742,19.167 52.833 C 19.167 52.925,18.979 53.000,18.750 53.000 C 18.521 53.000,18.333 53.080,18.333 53.179 C 18.333 53.434,17.971 53.741,17.589 53.807 C 17.191 53.877,16.718 54.193,16.694 54.406 C 16.684 54.492,16.553 54.580,16.404 54.602 C 16.254 54.624,16.021 54.801,15.885 54.994 C 15.750 55.188,15.527 55.437,15.391 55.548 C 14.455 56.311,13.667 57.199,13.667 57.490 C 13.667 57.679,13.586 57.833,13.488 57.833 C 13.225 57.833,12.880 58.224,12.952 58.440 C 12.987 58.544,12.899 58.744,12.757 58.885 C 12.616 59.027,12.500 59.306,12.500 59.506 C 12.500 59.766,12.426 59.841,12.241 59.770 C 12.099 59.715,12.026 59.740,12.078 59.825 C 12.131 59.910,12.053 60.047,11.905 60.130 C 11.758 60.212,11.644 60.329,11.652 60.390 C 11.712 60.834,11.630 61.180,11.412 61.397 C 11.266 61.543,11.189 61.827,11.232 62.063 C 11.279 62.320,11.218 62.509,11.070 62.565 C 10.938 62.616,10.833 62.879,10.833 63.161 C 10.833 63.453,10.745 63.668,10.625 63.669 C 10.486 63.671,10.500 63.726,10.667 63.833 C 10.833 63.941,10.847 63.996,10.708 63.997 C 10.444 64.001,10.403 71.254,10.667 71.417 C 10.758 71.473,10.833 71.724,10.833 71.973 C 10.833 72.222,10.950 72.593,11.093 72.797 C 11.236 73.000,11.310 73.236,11.258 73.320 C 11.206 73.404,11.277 73.586,11.415 73.725 C 11.553 73.863,11.667 74.083,11.667 74.212 C 11.667 74.560,12.173 75.516,12.312 75.430 C 12.377 75.390,12.441 75.496,12.454 75.667 C 12.486 76.091,13.002 76.851,13.183 76.740 C 13.264 76.690,13.290 76.752,13.242 76.878 C 13.193 77.004,13.381 77.364,13.658 77.678 C 13.935 77.993,14.163 78.344,14.164 78.458 C 14.165 78.573,14.281 78.667,14.421 78.667 C 14.561 78.667,14.743 78.845,14.826 79.064 C 15.000 79.521,15.835 80.167,16.252 80.167 C 16.436 80.167,16.502 80.255,16.440 80.417 C 16.381 80.569,16.439 80.667,16.589 80.667 C 16.723 80.667,16.833 80.754,16.833 80.861 C 16.833 80.968,16.880 81.009,16.938 80.951 C 16.995 80.894,17.237 81.069,17.475 81.340 C 17.713 81.611,18.045 81.833,18.214 81.833 C 18.411 81.833,18.477 81.907,18.400 82.042 C 18.334 82.156,18.339 82.197,18.411 82.132 C 18.482 82.067,18.813 82.153,19.146 82.323 C 19.478 82.492,19.787 82.632,19.833 82.633 C 20.099 82.641,20.834 83.082,20.836 83.235 C 20.837 83.335,20.912 83.304,21.003 83.167 C 21.121 82.986,21.201 82.970,21.292 83.110 C 21.361 83.216,21.643 83.329,21.917 83.360 C 22.192 83.391,22.403 83.494,22.387 83.589 C 22.370 83.691,22.721 83.758,23.241 83.754 C 23.864 83.749,24.103 83.806,24.048 83.948 C 23.950 84.203,29.103 84.238,29.261 83.983 C 29.327 83.876,29.442 83.883,29.587 84.003 C 29.755 84.143,29.916 84.120,30.231 83.914 C 30.480 83.750,30.789 83.683,30.993 83.748 C 31.224 83.821,31.368 83.771,31.435 83.595 C 31.494 83.441,31.734 83.333,32.018 83.333 C 32.650 83.333,32.680 82.684,32.083 81.902 C 31.854 81.601,31.667 81.276,31.667 81.178 C 31.667 81.080,31.592 81.000,31.500 81.000 C 31.408 81.000,31.333 80.864,31.333 80.698 C 31.333 80.532,31.165 80.216,30.960 79.995 C 30.754 79.775,30.456 79.225,30.297 78.773 C 30.138 78.321,29.893 77.825,29.754 77.671 C 29.614 77.516,29.549 77.339,29.611 77.278 C 29.672 77.217,29.635 77.167,29.528 77.167 C 29.421 77.167,29.333 77.029,29.333 76.861 C 29.333 76.693,29.281 76.503,29.217 76.440 C 29.110 76.332,29.056 76.150,28.938 75.500 C 28.913 75.362,28.831 75.110,28.755 74.939 C 28.679 74.769,28.609 74.431,28.600 74.189 C 28.590 73.933,28.497 73.767,28.375 73.792 C 28.260 73.815,28.176 73.777,28.186 73.708 C 28.292 73.037,28.137 71.830,27.958 71.931 C 27.792 72.025,27.792 72.004,27.958 71.824 C 28.073 71.701,28.166 71.521,28.164 71.425 C 28.163 71.329,28.089 71.362,28.000 71.500 C 27.815 71.787,27.807 71.603,27.812 67.048 C 27.814 65.357,27.889 63.875,27.981 63.702 C 28.072 63.531,28.164 62.969,28.185 62.453 C 28.206 61.937,28.278 61.549,28.344 61.590 C 28.516 61.696,28.606 61.349,28.594 60.625 C 28.588 60.281,28.661 60.000,28.755 60.000 C 28.850 60.000,28.944 59.798,28.964 59.551 C 28.985 59.304,29.058 59.060,29.126 59.009 C 29.194 58.958,29.276 58.767,29.308 58.583 C 29.340 58.400,29.444 58.202,29.538 58.144 C 29.632 58.085,29.658 57.954,29.595 57.852 C 29.532 57.750,29.541 57.667,29.616 57.667 C 29.691 57.667,29.850 57.423,29.970 57.125 C 30.090 56.827,30.259 56.453,30.344 56.294 C 30.430 56.135,30.500 55.872,30.500 55.709 C 30.500 55.546,30.653 55.318,30.840 55.201 C 31.027 55.085,31.135 54.917,31.080 54.828 C 31.025 54.739,31.060 54.667,31.157 54.667 C 31.254 54.667,31.333 54.562,31.333 54.434 C 31.333 54.307,31.442 54.161,31.575 54.109 C 31.714 54.056,31.789 53.869,31.751 53.671 C 31.714 53.480,31.747 53.363,31.824 53.411 C 32.032 53.540,32.500 52.741,32.500 52.256 C 32.500 52.023,32.444 51.842,32.375 51.853 C 31.998 51.913,31.660 51.812,31.750 51.667 C 31.812 51.566,31.583 51.500,31.171 51.500 C 30.758 51.500,30.456 51.413,30.405 51.278 C 30.343 51.119,29.959 51.061,29.035 51.070 C 28.084 51.080,27.696 51.018,27.541 50.833 C 27.360 50.617,27.346 50.623,27.435 50.877 C 27.512 51.098,27.471 51.145,27.269 51.067 C 27.121 51.011,27.000 50.897,27.000 50.816 C 27.000 50.734,26.883 50.667,26.740 50.667 C 26.597 50.667,26.527 50.742,26.583 50.833 M131.833 50.833 C 132.121 51.019,132.186 51.011,130.333 51.031 C 128.816 51.047,128.448 51.115,128.594 51.351 C 128.645 51.433,128.457 51.500,128.177 51.500 C 127.896 51.500,127.667 51.575,127.667 51.667 C 127.667 51.758,127.610 51.824,127.542 51.814 C 126.721 51.684,126.524 52.554,127.250 53.100 C 127.479 53.272,127.667 53.582,127.667 53.790 C 127.667 54.030,127.767 54.167,127.944 54.167 C 128.097 54.167,128.173 54.216,128.113 54.276 C 128.052 54.337,128.096 54.501,128.210 54.642 C 128.381 54.853,128.373 54.875,128.167 54.770 C 128.018 54.694,128.034 54.738,128.206 54.879 C 128.365 55.010,128.446 55.165,128.386 55.225 C 128.327 55.284,128.403 55.333,128.556 55.333 C 128.763 55.333,128.833 55.484,128.833 55.927 C 128.833 56.253,128.902 56.477,128.986 56.425 C 129.071 56.373,129.189 56.557,129.250 56.833 C 129.311 57.110,129.429 57.294,129.514 57.242 C 129.598 57.190,129.667 57.286,129.667 57.457 C 129.667 57.627,129.739 57.839,129.828 57.928 C 129.916 58.016,130.008 58.336,130.031 58.637 C 130.054 58.939,130.163 59.261,130.275 59.354 C 130.386 59.446,130.449 59.667,130.415 59.844 C 130.376 60.043,130.445 60.167,130.593 60.167 C 130.767 60.167,130.833 60.376,130.833 60.927 C 130.833 61.391,130.898 61.646,131.000 61.583 C 131.103 61.520,131.178 61.852,131.195 62.448 C 131.239 63.944,131.248 64.010,131.421 64.134 C 131.706 64.338,131.617 70.990,131.326 71.177 C 131.114 71.313,131.115 71.354,131.333 71.497 C 131.471 71.588,131.504 71.663,131.406 71.664 C 131.309 71.666,131.211 72.017,131.189 72.445 C 131.167 72.873,131.079 73.352,130.995 73.509 C 130.911 73.667,130.824 74.030,130.802 74.315 C 130.779 74.619,130.670 74.833,130.538 74.833 C 130.415 74.833,130.355 74.901,130.406 74.983 C 130.547 75.212,130.313 76.174,130.142 76.068 C 130.059 76.017,130.002 76.037,130.016 76.113 C 130.089 76.536,129.978 77.173,129.845 77.090 C 129.759 77.038,129.665 77.202,129.636 77.456 C 129.607 77.709,129.500 77.901,129.397 77.882 C 129.295 77.864,129.213 77.976,129.216 78.132 C 129.223 78.579,128.833 79.464,128.587 79.559 C 128.465 79.606,128.313 79.879,128.250 80.165 C 128.187 80.452,127.918 80.910,127.651 81.182 C 127.385 81.455,127.167 81.784,127.167 81.913 C 127.167 82.042,127.108 82.183,127.036 82.227 C 126.675 82.451,126.829 83.333,127.230 83.333 C 127.450 83.333,127.677 83.452,127.732 83.597 C 127.807 83.791,127.987 83.840,128.418 83.782 C 128.740 83.738,129.038 83.760,129.081 83.829 C 129.124 83.898,129.348 83.934,129.579 83.909 C 129.811 83.883,130.000 83.931,130.000 84.015 C 130.000 84.260,134.891 84.206,135.158 83.958 C 135.337 83.792,135.359 83.792,135.265 83.958 C 135.200 84.073,135.220 84.167,135.310 84.167 C 135.399 84.167,135.497 84.091,135.528 83.998 C 135.593 83.805,136.208 83.643,136.878 83.644 C 137.132 83.644,137.296 83.575,137.243 83.489 C 137.190 83.403,137.418 83.333,137.750 83.333 C 138.110 83.333,138.311 83.266,138.250 83.167 C 138.192 83.072,138.329 83.000,138.565 83.000 C 138.795 83.000,139.060 82.869,139.153 82.708 C 139.255 82.534,139.325 82.503,139.328 82.631 C 139.332 82.770,139.462 82.726,139.698 82.506 C 139.899 82.320,140.227 82.167,140.428 82.167 C 140.628 82.167,140.885 82.055,140.998 81.919 C 141.112 81.782,141.270 81.711,141.350 81.760 C 141.431 81.810,141.452 81.734,141.397 81.592 C 141.323 81.399,141.408 81.333,141.732 81.333 C 141.971 81.333,142.167 81.258,142.167 81.167 C 142.167 81.075,142.284 81.000,142.427 81.000 C 142.569 81.000,142.640 80.925,142.583 80.833 C 142.527 80.742,142.581 80.667,142.704 80.667 C 142.827 80.667,143.064 80.436,143.230 80.155 C 143.410 79.852,143.625 79.679,143.761 79.731 C 143.887 79.779,144.041 79.735,144.104 79.634 C 144.177 79.515,144.134 79.492,143.984 79.570 C 143.855 79.637,143.896 79.573,144.074 79.429 C 144.251 79.285,144.346 79.167,144.283 79.167 C 144.220 79.167,144.630 78.717,145.194 78.167 C 145.757 77.617,146.151 77.164,146.068 77.162 C 145.985 77.159,146.048 77.080,146.208 76.987 C 146.369 76.893,146.500 76.714,146.500 76.589 C 146.500 76.464,146.556 76.336,146.625 76.306 C 146.806 76.225,147.333 75.181,147.333 74.903 C 147.333 74.773,147.408 74.667,147.500 74.667 C 147.592 74.667,147.667 74.487,147.667 74.268 C 147.667 74.048,147.779 73.826,147.917 73.773 C 148.063 73.717,148.167 73.467,148.167 73.172 C 148.167 72.894,148.242 72.667,148.333 72.667 C 148.425 72.667,148.500 72.292,148.500 71.833 C 148.500 71.375,148.575 71.000,148.667 71.000 C 148.879 71.000,148.894 64.503,148.683 63.966 C 148.600 63.756,148.436 63.143,148.318 62.606 C 148.200 62.068,148.001 61.525,147.876 61.399 C 147.750 61.274,147.623 61.001,147.594 60.794 C 147.502 60.133,147.300 59.667,147.148 59.762 C 147.066 59.812,147.000 59.696,147.000 59.505 C 147.000 59.313,146.887 59.113,146.750 59.060 C 146.612 59.008,146.500 58.849,146.500 58.708 C 146.500 58.566,146.237 58.131,145.917 57.739 C 145.596 57.348,145.333 56.946,145.333 56.847 C 145.333 56.748,145.258 56.667,145.167 56.667 C 145.075 56.667,145.000 56.563,145.000 56.436 C 145.000 56.309,144.844 56.165,144.654 56.115 C 144.464 56.065,144.267 55.865,144.216 55.670 C 144.160 55.458,144.031 55.350,143.897 55.401 C 143.772 55.449,143.689 55.397,143.710 55.286 C 143.732 55.174,143.656 55.102,143.542 55.125 C 143.427 55.148,143.333 55.097,143.333 55.011 C 143.333 54.926,143.183 54.808,143.000 54.750 C 142.817 54.692,142.667 54.532,142.667 54.396 C 142.667 54.259,142.601 54.187,142.522 54.237 C 142.442 54.286,142.208 54.180,142.002 54.001 C 141.796 53.823,141.486 53.632,141.314 53.577 C 141.141 53.522,141.000 53.413,141.000 53.334 C 141.000 53.170,140.052 52.667,139.742 52.667 C 139.629 52.667,139.499 52.571,139.454 52.455 C 139.410 52.338,139.158 52.225,138.895 52.203 C 138.632 52.182,138.392 52.089,138.361 51.999 C 138.331 51.908,138.082 51.833,137.810 51.833 C 137.521 51.833,137.357 51.764,137.417 51.667 C 137.478 51.567,137.280 51.500,136.927 51.500 C 136.564 51.500,136.332 51.419,136.331 51.292 C 136.329 51.153,136.274 51.167,136.167 51.333 C 136.026 51.551,136.005 51.549,136.003 51.315 C 136.000 51.089,135.791 51.050,134.680 51.069 C 133.954 51.082,133.391 51.041,133.430 50.978 C 133.469 50.916,133.350 50.904,133.167 50.952 C 132.980 51.000,132.833 50.957,132.833 50.853 C 132.833 50.748,132.559 50.668,132.208 50.669 C 131.743 50.671,131.647 50.713,131.833 50.833 M64.500 65.098 C 62.090 65.529,59.167 67.224,59.167 68.191 C 59.167 69.218,60.151 69.719,61.144 69.198 C 61.477 69.023,62.153 68.670,62.645 68.415 C 65.405 66.982,68.498 67.237,71.833 69.171 C 73.227 69.980,74.446 68.587,73.416 67.363 C 72.090 65.787,67.363 64.585,64.500 65.098 M89.333 65.162 C 89.013 65.242,88.466 65.381,88.118 65.471 C 86.384 65.920,84.167 67.439,84.167 68.178 C 84.167 69.578,85.398 69.791,87.167 68.697 C 89.671 67.147,93.582 67.175,96.097 68.759 C 97.877 69.881,99.355 69.402,98.823 67.875 C 98.679 67.461,97.420 66.333,97.102 66.333 C 97.051 66.333,96.613 66.158,96.130 65.944 C 95.646 65.730,94.987 65.462,94.667 65.349 C 93.949 65.096,90.132 64.962,89.333 65.162 " stroke="none" fill="#bebed5" fill-rule="evenodd"></path><path id="path2" d="M186.000 50.833 L 186.000 56.500 199.833 56.500 L 213.667 56.500 213.667 57.750 L 213.667 59.000 199.833 59.000 L 186.000 59.000 186.000 71.417 L 186.000 83.835 205.708 83.792 L 225.417 83.750 225.417 78.250 L 225.417 72.750 211.625 72.707 L 197.833 72.665 197.833 71.500 L 197.833 70.335 211.625 70.293 L 225.417 70.250 225.459 57.708 L 225.502 45.167 205.751 45.167 L 186.000 45.167 186.000 50.833 M247.500 50.833 L 247.500 56.500 253.417 56.500 L 259.333 56.500 259.333 50.833 L 259.333 45.167 253.417 45.167 L 247.500 45.167 247.500 50.833 M281.500 50.833 L 281.500 56.500 295.333 56.500 L 309.167 56.500 309.167 56.917 C 309.167 57.146,309.242 57.333,309.333 57.333 C 309.425 57.333,309.500 57.595,309.500 57.916 L 309.500 58.498 295.542 58.541 L 281.583 58.583 281.541 71.208 L 281.498 83.833 301.166 83.833 L 320.833 83.833 320.833 78.083 L 320.833 72.333 307.083 72.333 L 293.333 72.333 293.333 71.333 L 293.333 70.333 307.083 70.333 L 320.833 70.333 320.833 57.750 L 320.833 45.167 301.167 45.167 L 281.500 45.167 281.500 50.833 M343.000 50.833 L 343.000 56.500 348.917 56.500 L 354.833 56.500 354.833 50.833 L 354.833 45.167 348.917 45.167 L 343.000 45.167 343.000 50.833 M247.702 58.698 C 247.547 58.853,247.500 61.819,247.500 71.367 L 247.500 83.833 253.418 83.833 L 259.335 83.833 259.293 71.208 L 259.250 58.583 253.577 58.540 C 249.304 58.507,247.854 58.546,247.702 58.698 M343.111 58.611 C 342.838 58.884,342.989 83.627,343.264 83.732 C 343.409 83.788,346.071 83.833,349.180 83.833 L 354.833 83.833 354.833 71.167 L 354.833 58.500 349.028 58.500 C 345.835 58.500,343.172 58.550,343.111 58.611 " stroke="none" fill="#040404" fill-rule="evenodd"></path><path id="path3" d="M58.917 54.436 C 56.452 54.938,55.003 55.571,53.400 56.847 C 48.712 60.577,47.714 70.126,51.480 75.223 C 52.963 77.230,55.263 78.800,57.607 79.403 C 59.162 79.803,100.505 79.803,102.059 79.403 C 107.540 77.992,110.250 73.916,110.250 67.083 C 110.250 60.140,107.944 56.630,102.083 54.649 C 101.451 54.435,59.926 54.231,58.917 54.436 M68.167 64.911 C 70.093 65.277,70.538 65.413,71.653 65.980 C 73.811 67.076,74.385 67.786,73.917 68.773 C 73.492 69.668,72.252 69.921,71.511 69.265 C 69.322 67.327,64.197 67.244,61.736 69.108 C 60.334 70.170,58.612 69.319,59.093 67.803 C 59.673 65.974,64.936 64.297,68.167 64.911 M93.039 64.851 C 93.705 64.952,94.380 65.102,94.539 65.184 C 94.699 65.266,94.947 65.333,95.091 65.333 C 95.559 65.333,98.123 66.686,98.601 67.185 C 99.903 68.544,98.350 70.306,96.711 69.329 C 94.421 67.964,93.814 67.781,91.594 67.786 C 89.499 67.791,88.566 68.030,87.042 68.951 C 85.668 69.782,85.141 69.834,84.508 69.200 C 82.475 67.167,88.402 64.146,93.039 64.851 " stroke="none" fill="#141c4c" fill-rule="evenodd"></path><path id="path4" d="M58.417 50.210 C 56.952 50.410,54.649 51.105,53.667 51.643 C 53.254 51.869,52.769 52.135,52.588 52.235 C 51.209 52.998,48.299 55.653,48.078 56.349 C 48.023 56.524,47.908 56.667,47.822 56.667 C 47.737 56.667,47.667 56.779,47.667 56.917 C 47.667 57.054,47.603 57.167,47.525 57.167 C 47.448 57.167,47.243 57.485,47.072 57.875 C 46.900 58.265,46.718 58.621,46.667 58.667 C 46.584 58.741,46.245 59.524,45.815 60.633 C 45.733 60.843,45.667 61.222,45.667 61.475 C 45.667 61.727,45.590 62.010,45.496 62.104 C 45.403 62.197,45.284 63.394,45.233 64.762 C 45.182 66.130,45.062 67.414,44.965 67.613 C 44.841 67.870,44.845 68.350,44.978 69.245 C 45.082 69.943,45.167 70.829,45.168 71.215 C 45.168 71.601,45.281 72.131,45.418 72.394 C 45.555 72.657,45.667 73.088,45.667 73.352 C 45.667 73.617,45.742 73.833,45.833 73.833 C 45.925 73.833,46.000 73.989,46.000 74.180 C 46.000 74.476,47.081 76.755,47.337 77.000 C 47.385 77.046,47.559 77.295,47.724 77.554 C 48.476 78.734,51.058 81.333,51.479 81.333 C 51.567 81.333,51.664 81.403,51.694 81.489 C 51.788 81.750,54.976 83.333,55.408 83.333 C 55.631 83.333,55.860 83.408,55.917 83.500 C 55.973 83.592,56.231 83.667,56.489 83.667 C 56.748 83.667,57.229 83.779,57.558 83.917 C 58.079 84.135,60.929 84.167,79.724 84.167 C 98.469 84.167,101.384 84.134,102.000 83.917 C 102.390 83.779,102.920 83.667,103.178 83.667 C 103.436 83.667,103.693 83.592,103.750 83.500 C 103.807 83.408,104.008 83.333,104.198 83.333 C 105.874 83.333,110.589 79.792,111.926 77.529 C 112.098 77.238,112.289 77.000,112.351 77.000 C 112.413 77.000,112.511 76.813,112.568 76.583 C 112.626 76.354,112.747 76.167,112.837 76.167 C 112.926 76.167,113.000 76.021,113.000 75.843 C 113.000 75.665,113.075 75.473,113.167 75.417 C 113.258 75.360,113.333 75.177,113.333 75.011 C 113.333 74.844,113.446 74.614,113.583 74.500 C 113.721 74.386,113.833 74.119,113.833 73.906 C 113.833 73.694,113.908 73.473,114.000 73.417 C 114.092 73.360,114.167 73.051,114.167 72.729 C 114.167 72.408,114.251 71.988,114.353 71.796 C 114.585 71.363,114.585 63.551,114.353 62.776 C 114.135 62.049,113.827 60.841,113.719 60.292 C 113.669 60.040,113.562 59.833,113.481 59.833 C 113.400 59.833,113.332 59.702,113.331 59.542 C 113.318 57.977,109.598 53.630,107.078 52.235 C 102.918 49.932,103.699 49.995,79.575 50.025 C 67.926 50.040,59.096 50.117,58.417 50.210 M102.417 50.615 C 102.692 50.720,103.367 50.939,103.917 51.102 C 108.371 52.420,112.070 56.175,113.665 61.000 C 114.206 62.635,114.497 69.438,114.110 71.417 C 112.828 77.981,108.100 82.488,101.261 83.663 C 99.892 83.899,59.840 83.896,58.347 83.660 C 53.871 82.954,50.335 80.733,47.860 77.074 C 47.185 76.075,46.751 75.186,45.998 73.250 C 45.378 71.656,45.149 64.578,45.647 62.417 C 46.107 60.425,47.350 57.477,48.001 56.833 C 48.047 56.788,48.307 56.450,48.578 56.083 C 50.791 53.088,55.160 50.687,58.833 50.447 C 61.402 50.279,101.948 50.435,102.417 50.615 M132.833 50.833 C 132.833 50.925,132.902 51.000,132.986 51.000 C 133.071 51.000,133.277 51.048,133.445 51.106 C 133.713 51.199,133.710 51.179,133.417 50.944 C 133.030 50.635,132.833 50.597,132.833 50.833 M12.169 59.663 C 12.025 59.932,12.039 59.975,12.246 59.895 C 12.386 59.842,12.500 59.693,12.500 59.566 C 12.500 59.240,12.375 59.277,12.169 59.663 M64.667 64.916 C 62.033 65.414,59.422 66.767,59.093 67.803 C 58.612 69.319,60.334 70.169,61.736 69.108 C 62.019 68.895,62.737 68.522,63.333 68.281 C 63.929 68.040,64.267 67.843,64.083 67.843 C 63.780 67.844,63.404 68.017,61.227 69.155 C 59.622 69.996,58.431 68.484,59.732 67.256 C 62.467 64.677,67.989 64.280,72.041 66.372 C 73.639 67.197,74.209 68.185,73.542 68.974 C 73.103 69.493,72.507 69.562,71.833 69.171 C 69.762 67.970,68.140 67.482,66.344 67.520 C 64.474 67.559,64.464 67.768,66.333 67.771 C 68.651 67.774,70.397 68.278,71.511 69.265 C 72.644 70.268,74.617 69.018,73.945 67.723 C 73.548 66.958,71.453 65.666,70.017 65.301 C 67.548 64.673,66.395 64.590,64.667 64.916 M89.667 64.923 C 88.374 65.176,87.633 65.400,87.221 65.664 C 86.938 65.845,86.941 65.850,87.250 65.743 C 88.986 65.144,90.337 64.958,92.250 65.055 C 94.117 65.150,94.575 65.255,96.130 65.944 C 96.613 66.158,97.051 66.333,97.102 66.333 C 97.420 66.333,98.679 67.461,98.823 67.875 C 99.354 69.398,97.885 69.879,96.097 68.766 C 95.211 68.215,94.033 67.744,93.893 67.885 C 93.848 67.930,94.097 68.061,94.447 68.177 C 95.068 68.381,95.430 68.566,96.711 69.329 C 98.350 70.306,99.903 68.544,98.601 67.185 C 98.123 66.686,95.559 65.333,95.091 65.333 C 94.947 65.333,94.699 65.266,94.539 65.184 C 93.644 64.723,91.327 64.599,89.667 64.923 M85.802 66.304 C 83.978 67.346,83.562 68.255,84.487 69.179 C 85.020 69.712,85.524 69.789,86.167 69.436 C 87.818 68.528,88.383 68.174,88.167 68.183 C 88.029 68.188,87.579 68.410,87.167 68.676 C 85.690 69.628,84.941 69.693,84.429 68.912 C 83.879 68.072,84.451 67.166,86.049 66.349 C 86.480 66.128,86.833 65.922,86.833 65.890 C 86.833 65.764,86.546 65.879,85.802 66.304 M89.917 67.655 C 89.642 67.718,90.392 67.770,91.583 67.770 C 93.035 67.771,93.530 67.729,93.083 67.645 C 92.274 67.492,90.600 67.497,89.917 67.655 M88.667 68.000 C 88.444 68.144,88.444 68.162,88.667 68.162 C 88.804 68.162,89.029 68.089,89.167 68.000 C 89.389 67.856,89.389 67.838,89.167 67.838 C 89.029 67.838,88.804 67.911,88.667 68.000 M128.542 71.426 C 128.296 71.693,128.276 71.833,128.482 71.833 C 128.624 71.833,128.891 71.332,128.796 71.243 C 128.771 71.219,128.656 71.302,128.542 71.426 M28.210 73.472 C 28.223 73.640,28.327 73.778,28.441 73.778 C 28.591 73.778,28.603 73.693,28.485 73.472 C 28.395 73.304,28.291 73.167,28.254 73.167 C 28.218 73.167,28.198 73.304,28.210 73.472 M144.702 78.655 C 144.400 78.921,144.213 79.171,144.285 79.211 C 144.357 79.251,144.630 79.032,144.891 78.725 C 145.473 78.041,145.420 78.022,144.702 78.655 M143.708 79.612 C 143.502 79.756,143.333 79.940,143.333 80.020 C 143.333 80.286,143.579 80.163,143.883 79.745 C 144.229 79.269,144.215 79.259,143.708 79.612 M22.000 83.481 C 22.000 83.562,22.154 83.668,22.343 83.717 C 22.624 83.791,22.650 83.765,22.489 83.570 C 22.269 83.305,22.000 83.256,22.000 83.481 M136.417 83.667 C 136.123 83.793,136.140 83.811,136.552 83.822 C 136.824 83.828,136.977 83.764,136.917 83.667 C 136.860 83.575,136.799 83.505,136.782 83.512 C 136.764 83.518,136.600 83.588,136.417 83.667 M29.227 84.036 C 29.116 84.217,29.530 84.195,29.831 84.005 C 30.024 83.883,29.994 83.854,29.694 83.877 C 29.481 83.893,29.272 83.965,29.227 84.036 M129.333 84.010 C 129.333 84.096,129.483 84.167,129.667 84.167 C 129.850 84.167,130.000 84.108,130.000 84.035 C 130.000 83.963,129.850 83.893,129.667 83.879 C 129.483 83.865,129.333 83.924,129.333 84.010 M82.375 98.782 C 82.535 98.823,82.798 98.823,82.958 98.782 C 83.119 98.740,82.987 98.705,82.667 98.705 C 82.346 98.705,82.215 98.740,82.375 98.782 " stroke="none" fill="#96c2bc" fill-rule="evenodd"></path></g></svg>