<?xml version="1.0" ?>
<svg style="enable-background:new 0 0 48 48;" version="1.1" viewBox="0 0 48 48" xml:space="preserve"
    xmlns="http://www.w3.org/2000/svg" xmlns:xlink="http://www.w3.org/1999/xlink"><g id="Padding__x26__Artboard"/>
    <g id="Icons"><g><path d="M35.23901,28.86719c-0.00385-0.00049-0.00751-0.00104-0.01135-0.00153    c-0.12634,0.34894-0.25269,0.69769-0.38129,1.05249c0.20734,0,0.40369,0,0.61182,0    C35.38409,29.56305,35.31158,29.21509,35.23901,28.86719z" style="fill:#303030;"/><path
        d="M11.94604,28.04834h3.14062c0.20703,0,0.375-0.16797,0.375-0.375s-0.16797-0.375-0.375-0.375h-3.14062    c-0.20703,0-0.375,0.16797-0.375,0.375S11.73901,28.04834,11.94604,28.04834z"
        style="fill:none;" /><path
        d="M27.92279,28.38037c0.12671,0.0564,0.19342,0.14819,0.22717,0.28101    c0.18835,0.74017,0.38165,1.47919,0.57166,2.21899c0.00916,0.03571,0.02368,0.04419,0.05798,0.04388    c0.22748-0.0014,0.45508-0.00177,0.68262,0.00024c0.03839,0.00024,0.05548-0.01276,0.06989-0.047    c0.37561-0.8988,0.75238-1.79724,1.12878-2.69562c0.01282-0.03064,0.02441-0.06158,0.03833-0.0968c-0.25995,0-0.51361,0-0.77002,0    c-0.2522,0.63696-0.5047,1.2749-0.75732,1.9129c-0.01459-0.02173-0.01904-0.03961-0.02246-0.05774    c-0.09814-0.521-0.19574-1.04199-0.29449-1.56274c-0.03571-0.18842-0.16724-0.29523-0.35895-0.29523    c-0.38599-0.00012-0.77197,0.00079-1.15796-0.00128c-0.04901-0.00024-0.08423,0.00488-0.091,0.06067    c0,0.00684,0,0.01349,0,0.02032c0.00946,0.00311,0.01886,0.0069,0.02856,0.00916    C27.49719,28.2229,27.71411,28.2876,27.92279,28.38037z"
        style="fill:none;" /><path
        d="M30.47479,30.9234c0.20062,0,0.40118-0.00232,0.60168,0.00134    c0.05444,0.00104,0.07343-0.01459,0.08472-0.06787c0.17609-0.83289,0.35468-1.66522,0.53259-2.49762    c0.01923-0.09009,0.03772-0.18036,0.05731-0.27417c-0.2467,0-0.4873,0-0.73303,0c-0.20197,0.94312-0.40399,1.8869-0.60767,2.83832    C30.43811,30.9234,30.45642,30.9234,30.47479,30.9234z"
        style="fill:none;" /><path
        d="M33.71509,30.92267c0.24963,0,0.49377,0.00073,0.73798-0.00159    c0.01465-0.00018,0.03613-0.0213,0.04224-0.03729c0.04321-0.1131,0.08472-0.22693,0.12347-0.34161    c0.01184-0.03497,0.0293-0.04529,0.06525-0.0451c0.25787,0.0014,0.51569,0.00073,0.7735,0.00073    c0.12347,0,0.12286,0.00006,0.14697,0.11926c0.02057,0.1015,0.04279,0.2027,0.06421,0.30383c0.22638,0,0.4469,0,0.677,0    c-0.1983-0.9494-0.39551-1.89313-0.5929-2.83795c-0.20953,0-0.41162-0.00006-0.61371,0.00012    c-0.15649,0.00018-0.26923,0.0752-0.33008,0.22058c-0.35956,0.85791-0.71881,1.71582-1.07794,2.57373    C33.7254,30.89075,33.72137,30.90485,33.71509,30.92267z"
        style="fill:none;" /><path
        d="M31.71228,30.84326c0.34033,0.11682,0.6897,0.15173,1.04572,0.10602    c0.22632-0.02899,0.4389-0.10004,0.62683-0.2356c0.32648-0.23572,0.41699-0.62659,0.33417-0.9198    c-0.05701-0.2019-0.19928-0.33734-0.3703-0.44342c-0.12708-0.07892-0.26251-0.14429-0.39142-0.22052    c-0.0647-0.03827-0.12866-0.0813-0.18317-0.13269c-0.08002-0.0755-0.0799-0.18115,0.00299-0.25348    c0.04889-0.04272,0.11182-0.07788,0.17432-0.09479c0.17285-0.04651,0.34808-0.02863,0.51965,0.01306    c0.0954,0.02325,0.18793,0.05792,0.28461,0.08844c0.04211-0.19684,0.08423-0.39362,0.12683-0.59222    c-0.02252-0.00867-0.04071-0.0174-0.05994-0.02271c-0.07941-0.02197-0.15851-0.04596-0.23889-0.06329    c-0.0816-0.01758-0.16467-0.0282-0.24719-0.04181c-0.09442,0-0.18878,0-0.2832,0    c-0.01257,0.00342-0.02496,0.00781-0.03778,0.01001c-0.08612,0.01453-0.17389,0.0224-0.25842,0.04382    c-0.2652,0.06696-0.49847,0.18945-0.65717,0.42096c-0.19293,0.28162-0.2384,0.70013,0.11798,0.99951    c0.12488,0.10504,0.26697,0.18079,0.41071,0.25562c0.0863,0.04492,0.1734,0.0921,0.24921,0.15222    c0.15497,0.12268,0.13171,0.30298-0.04419,0.39587c-0.09631,0.0509-0.20093,0.06738-0.30762,0.0686    c-0.2326,0.00269-0.45459-0.0451-0.6651-0.14502c-0.02399-0.01135-0.04871-0.0213-0.07751-0.03375    c-0.04468,0.20929-0.08832,0.41394-0.13232,0.62018C31.67517,30.82825,31.69342,30.83679,31.71228,30.84326z"
        style="fill:none;" /><path
        d="M11.94604,30.40186h7.30762c0.20703,0,0.375-0.16797,0.375-0.375s-0.16797-0.375-0.375-0.375h-7.30762    c-0.20703,0-0.375,0.16797-0.375,0.375S11.73901,30.40186,11.94604,30.40186z"
        style="fill:none;" /><rect height="2.26318" style="fill:#303030;" width="30.28174"
        x="8.85913" y="19.77979" /><path
        d="M39.14087,16.46387c0-1.32715-1.07959-2.40674-2.40674-2.40674H11.26538    c-1.32666,0-2.40625,1.07959-2.40625,2.40674v2.56592h30.28174V16.46387z"
        style="fill:#303030;" /><path
        d="M8.85913,31.53613c0,1.32715,1.07959,2.40674,2.40625,2.40674h25.46875    c1.32715,0,2.40674-1.07959,2.40674-2.40674v-8.74316H8.85913V31.53613z M35.1391,28.08307    c0.20209-0.00018,0.40417-0.00012,0.61371-0.00012c0.19739,0.94482,0.39459,1.88855,0.5929,2.83795c-0.2301,0-0.45062,0-0.677,0    c-0.02142-0.10114-0.04364-0.20233-0.06421-0.30383c-0.02411-0.1192-0.0235-0.11926-0.14697-0.11926    c-0.25781,0-0.51562,0.00067-0.7735-0.00073c-0.03595-0.00018-0.05341,0.01013-0.06525,0.0451    c-0.03876,0.11469-0.08026,0.22852-0.12347,0.34161c-0.0061,0.01599-0.02759,0.03711-0.04224,0.03729    c-0.2442,0.00232-0.48834,0.00159-0.73798,0.00159c0.00629-0.01782,0.01031-0.03192,0.01599-0.04529    c0.35913-0.85791,0.71838-1.71582,1.07794-2.57373C34.86987,28.15826,34.9826,28.08325,35.1391,28.08307z M31.8609,30.23206    c0.21051,0.09991,0.4325,0.14771,0.6651,0.14502c0.10669-0.00122,0.2113-0.0177,0.30762-0.0686    c0.1759-0.0929,0.19916-0.27319,0.04419-0.39587c-0.07581-0.06012-0.1629-0.1073-0.24921-0.15222    c-0.14374-0.07483-0.28583-0.15057-0.41071-0.25562c-0.35638-0.29938-0.31091-0.7179-0.11798-0.99951    c0.15869-0.23151,0.39197-0.354,0.65717-0.42096c0.08453-0.02142,0.1723-0.0293,0.25842-0.04382    c0.01282-0.0022,0.02521-0.00659,0.03778-0.01001c0.09442,0,0.18878,0,0.2832,0c0.08252,0.01361,0.16559,0.02423,0.24719,0.04181    c0.08038,0.01733,0.15948,0.04132,0.23889,0.06329c0.01923,0.00531,0.03741,0.01404,0.05994,0.02271    c-0.0426,0.19861-0.08472,0.39539-0.12683,0.59222c-0.09668-0.03052-0.18921-0.06519-0.28461-0.08844    c-0.17157-0.04169-0.3468-0.05957-0.51965-0.01306c-0.0625,0.01691-0.12543,0.05206-0.17432,0.09479    c-0.08289,0.07233-0.08301,0.17798-0.00299,0.25348c0.0545,0.05139,0.11847,0.09442,0.18317,0.13269    c0.12891,0.07623,0.26434,0.1416,0.39142,0.22052c0.17102,0.10608,0.31329,0.24152,0.3703,0.44342    c0.08282,0.29321-0.00769,0.68408-0.33417,0.9198c-0.18793,0.13556-0.40051,0.2066-0.62683,0.2356    c-0.35602,0.04572-0.70538,0.0108-1.04572-0.10602c-0.01886-0.00647-0.03711-0.01501-0.06122-0.02478    c0.04401-0.20624,0.08765-0.41089,0.13232-0.62018C31.81219,30.21075,31.83691,30.2207,31.8609,30.23206z M31.7511,28.08508    c-0.01959,0.09381-0.03809,0.18408-0.05731,0.27417c-0.17792,0.8324-0.35651,1.66473-0.53259,2.49762    c-0.01129,0.05328-0.03027,0.06891-0.08472,0.06787c-0.2005-0.00366-0.40106-0.00134-0.60168-0.00134    c-0.01837,0-0.03668,0-0.06439,0c0.20367-0.95142,0.4057-1.8952,0.60767-2.83832    C31.26379,28.08508,31.50439,28.08508,31.7511,28.08508z M27.24701,28.14166c0.00677-0.05579,0.04199-0.06091,0.091-0.06067    c0.38599,0.00208,0.77197,0.00116,1.15796,0.00128c0.19171,0,0.32324,0.10681,0.35895,0.29523    c0.09875,0.52075,0.19635,1.04175,0.29449,1.56274c0.00342,0.01813,0.00787,0.03601,0.02246,0.05774    c0.25262-0.638,0.50513-1.27594,0.75732-1.9129c0.25641,0,0.51007,0,0.77002,0c-0.01392,0.03522-0.02551,0.06616-0.03833,0.0968    c-0.3764,0.89838-0.75317,1.79681-1.12878,2.69562c-0.0144,0.03424-0.03149,0.04724-0.06989,0.047    c-0.22754-0.00201-0.45514-0.00165-0.68262-0.00024c-0.0343,0.00031-0.04883-0.00818-0.05798-0.04388    c-0.19-0.73981-0.3833-1.47882-0.57166-2.21899c-0.03375-0.13281-0.10046-0.22461-0.22717-0.28101    c-0.20868-0.09277-0.4256-0.15747-0.64722-0.20923c-0.0097-0.00226-0.0191-0.00604-0.02856-0.00916    C27.24701,28.15515,27.24701,28.1485,27.24701,28.14166z M11.94604,27.29834h3.14062c0.20703,0,0.375,0.16797,0.375,0.375    s-0.16797,0.375-0.375,0.375h-3.14062c-0.20703,0-0.375-0.16797-0.375-0.375S11.73901,27.29834,11.94604,27.29834z     M11.94604,29.65186h7.30762c0.20703,0,0.375,0.16797,0.375,0.375s-0.16797,0.375-0.375,0.375h-7.30762    c-0.20703,0-0.375-0.16797-0.375-0.375S11.73901,29.65186,11.94604,29.65186z"
        style="fill:#303030;" /></g></g></svg>