<svg width="16" height="18" viewBox="0 0 16 18" fill="none" xmlns="http://www.w3.org/2000/svg">
<path d="M12.7373 14.2461H12.9492C14.2549 14.2461 15.123 13.5283 15.123 11.9971V5.55078H11.2812C10.5908 5.55078 10.1602 5.12012 10.1602 4.42969V0.355469H6.48242C5.05371 0.355469 4.26758 1.13477 4.26758 2.5498V2.87109H5.32031C6.39355 2.87109 7.17285 3.12402 7.93164 3.87598L11.8145 7.75879C12.5527 8.49707 12.7373 9.34473 12.7373 10.3633V14.2461ZM11.4727 4.62793H15.0137C14.9795 4.39551 14.8086 4.18359 14.5488 3.91699L11.7871 1.08691C11.5342 0.827148 11.3154 0.65625 11.083 0.628906L11.0898 4.23828C11.0898 4.51172 11.1992 4.62793 11.4727 4.62793ZM3.10547 17.7598H9.50391C10.9668 17.7598 11.7324 16.9873 11.7324 15.5107V10.2129H6.8584C5.99023 10.2129 5.56641 9.78223 5.56641 8.91406V3.86914H3.10547C1.64258 3.86914 0.876953 4.64844 0.876953 6.125V15.5107C0.876953 16.9941 1.64258 17.7598 3.10547 17.7598ZM6.94043 9.20801H11.6094C11.5273 8.91406 11.3496 8.63379 11.042 8.31934L7.43945 4.66211C7.125 4.34766 6.8584 4.13574 6.56445 4.04688V8.83203C6.56445 9.07812 6.69434 9.20801 6.94043 9.20801Z" fill="#2D4E6C"/>
</svg>
