<svg width="24" height="17" viewBox="0 0 24 17" fill="none" xmlns="http://www.w3.org/2000/svg">
<path d="M18.8994 16.8896H21.3867C22.7051 16.8896 23.417 16.2041 23.417 14.9473V2.29102C23.417 1.02539 22.7051 0.339844 21.3867 0.339844H18.8994C17.5811 0.339844 16.8691 1.02539 16.8691 2.29102V14.9473C16.8691 16.2041 17.5811 16.8896 18.8994 16.8896ZM10.752 16.8896H13.2393C14.5576 16.8896 15.2695 16.2041 15.2695 14.9473V4.84863C15.2695 3.5918 14.5576 2.89746 13.2393 2.89746H10.752C9.43359 2.89746 8.73047 3.5918 8.73047 4.85742V14.9473C8.73047 16.2041 9.43359 16.8896 10.752 16.8896ZM2.60449 16.8896H5.0918C6.41895 16.8896 7.13086 16.2041 7.13086 14.9473V7.41504C7.13086 6.1582 6.41895 5.46387 5.0918 5.46387H2.60449C1.29492 5.46387 0.583008 6.1582 0.583008 7.42383V14.9473C0.583008 16.2041 1.29492 16.8896 2.60449 16.8896Z" fill="#FFCC00"/>
</svg>
