<svg width="20" height="19" viewBox="0 0 20 19" fill="none" xmlns="http://www.w3.org/2000/svg">
<path d="M9.9915 18.7422C14.9749 18.7422 19.0882 14.6289 19.0882 9.6543C19.0882 4.67969 14.9661 0.566406 9.98271 0.566406C5.0081 0.566406 0.903605 4.67969 0.903605 9.6543C0.903605 14.6289 5.01689 18.7422 9.9915 18.7422ZM9.78056 11.4648C9.20927 11.4648 8.89286 11.2012 8.89286 10.6738V10.5771C8.89286 9.75098 9.36747 9.28516 10.0179 8.82812C10.7913 8.29199 11.1692 8.00195 11.1692 7.43945C11.1692 6.83301 10.7034 6.42871 9.98271 6.42871C9.45536 6.42871 9.06864 6.69238 8.7786 7.14062C8.49735 7.45703 8.36552 7.72949 7.83817 7.72949C7.40751 7.72949 7.05595 7.44824 7.05595 7.00879C7.05595 6.83301 7.0911 6.6748 7.15263 6.5166C7.44267 5.65527 8.49735 4.95215 10.0706 4.95215C11.7054 4.95215 13.0852 5.82227 13.0852 7.35156C13.0852 8.40625 12.5052 8.93359 11.5911 9.52246C11.011 9.90039 10.677 10.2168 10.6507 10.6914C10.6507 10.7178 10.6419 10.7617 10.6419 10.7969C10.6155 11.1748 10.2903 11.4648 9.78056 11.4648ZM9.77177 14.2773C9.17411 14.2773 8.68192 13.8467 8.68192 13.2666C8.68192 12.6865 9.16532 12.2559 9.77177 12.2559C10.3694 12.2559 10.8528 12.6865 10.8528 13.2666C10.8528 13.8555 10.3606 14.2773 9.77177 14.2773Z" fill="#979592"/>
</svg>
