<svg id="Layer_1" data-name="Layer 1" xmlns="http://www.w3.org/2000/svg" xmlns:xlink="http://www.w3.org/1999/xlink" viewBox="0 0 485.99 318.92"><defs><style>.cls-1{fill:url(#linear-gradient);}.cls-2{fill:#1380e2;}.cls-3{fill:#23d67d;}.cls-4{fill:#093959;}.cls-5{fill:#053347;}.cls-6{fill:#fff;}</style><linearGradient id="linear-gradient" x1="71.91" y1="208.08" x2="415.16" y2="208.08" gradientUnits="userSpaceOnUse"><stop offset="0.2" stop-color="#23d67d"/><stop offset="0.82" stop-color="#0b90f4"/></linearGradient></defs><title>2</title><ellipse class="cls-1" cx="243.53" cy="208.08" rx="171.63" ry="110.84"/><path class="cls-2" d="M440.6,307.47a91.27,91.27,0,0,1-17.59,54,56.49,56.49,0,0,0,18.78,3.19,57.21,57.21,0,1,0,0-114.41A56.49,56.49,0,0,0,423,253.45,91.3,91.3,0,0,1,440.6,307.47Z" transform="translate(-13.01 -99.38)"/><path class="cls-3" d="M250.88,182.79s-20.17-53,25.53-75.84c38.14-19.07,61.49,5.56,101.44-7.55C347.49,211.89,250.88,182.79,250.88,182.79Z" transform="translate(-13.01 -99.38)"/><path class="cls-3" d="M71.41,307.47a91.27,91.27,0,0,0,17.59,54,56.44,56.44,0,0,1-18.78,3.19,57.21,57.21,0,1,1,0-114.41A56.44,56.44,0,0,1,89,253.45,91.3,91.3,0,0,0,71.41,307.47Z" transform="translate(-13.01 -99.38)"/><rect class="cls-4" x="130.74" y="156.11" width="228.83" height="103.95" rx="45.68"/><path class="cls-5" d="M369.12,283.68a45.5,45.5,0,0,0-30.3-11.49H201.35a45.67,45.67,0,0,0-45.67,45.67v12.58a45.49,45.49,0,0,0,3.48,17.5,45.5,45.5,0,0,1-15.4-34.18V301.17a45.68,45.68,0,0,1,45.67-45.67H326.9A45.68,45.68,0,0,1,369.12,283.68Z" transform="translate(-13.01 -99.38)"/><path class="cls-6" d="M189.84,318.79a7.16,7.16,0,0,1-4.29-12.88,42.94,42.94,0,0,1,51.49,0,7.15,7.15,0,0,1-8.58,11.44,28.62,28.62,0,0,0-34.33,0A7.16,7.16,0,0,1,189.84,318.79Z" transform="translate(-13.01 -99.38)"/><path class="cls-6" d="M320.94,318.79a7.16,7.16,0,0,1-4.29-1.43,28.6,28.6,0,0,0-34.32,0,7.15,7.15,0,1,1-8.58-11.44,42.9,42.9,0,0,1,51.48,0,7.15,7.15,0,0,1-4.29,12.87Z" transform="translate(-13.01 -99.38)"/></svg>