<svg width="502" height="502" viewBox="0 0 502 502" fill="none" xmlns="http://www.w3.org/2000/svg">
<g filter="url(#filter0_i_656_14395)">
<path fill-rule="evenodd" clip-rule="evenodd" d="M199.557 222.175C202.943 219.233 207.914 219.233 217.857 219.233H220.364C202.217 198.18 201.71 166.286 233.023 146.233C244.181 139.088 257.424 139.432 269.294 143.81C277.269 137.749 291.509 131.666 305.749 127.902C305.889 127.865 306.029 127.834 306.169 127.81C301.299 100.48 322.683 74.8472 346.5 72.2331C358.833 70.8794 370.156 75.6386 382.7 80.9112C400.228 88.2783 420.14 96.6477 448.524 90.7444C452.595 89.8976 456.195 93.8472 454.446 97.62C423.689 163.987 350.588 187.21 319.878 154.074C315.48 149.329 312.196 144.414 309.882 139.456C301.5 140.576 288.568 145.751 281.615 150.074C302.339 163.759 310.864 188.946 285 196.733C259.136 204.52 239.499 177.733 259.136 153.54C251.185 152.204 241.992 153.353 232.5 162.233C217.993 175.805 216.188 199.889 236.925 218.086L238.249 219.233L250.042 219.233C259.985 219.233 264.956 219.233 268.342 222.175C271.728 225.118 272.421 230.04 273.808 239.886L274.899 248.072C330.617 253.101 392.595 269.61 401.329 311.554C401.843 314.018 402.265 316.508 402.605 319.015C403.073 319.118 403.488 319.209 403.861 319.29C406.018 319.762 406.739 319.919 407.84 320.327C416.238 323.435 421.547 331.746 420.835 340.673C420.726 342.045 420.376 343.632 419.676 346.807C418.976 349.982 418.626 351.57 418.148 352.861C415.04 361.259 410.17 366.788 401.243 366.076C397.77 387.726 391.654 405.646 389.396 412.261L389.235 412.733C381.735 434.733 343.235 433.233 325.235 416.233C319.156 410.491 316.104 406.072 314.729 402.737C306.778 433.756 277.327 431.233 234.163 431.233C191 431.233 161.131 433.798 153.17 402.737C151.795 406.072 148.743 410.491 142.664 416.233C124.664 433.233 86.1636 434.733 78.6638 412.733L78.5029 412.261C76.2451 405.646 70.129 387.726 66.6556 366.076C57.729 366.788 52.8585 361.259 49.7506 352.861C49.2729 351.57 48.9229 349.982 48.223 346.807C47.523 343.633 47.1731 342.045 47.0637 340.673C46.3521 331.746 51.661 323.435 60.0592 320.327C61.1601 319.919 61.8814 319.762 64.0384 319.29L64.0499 319.288C64.4195 319.207 64.8313 319.117 65.2941 319.015C65.634 316.508 66.0564 314.018 66.5694 311.554C75.3036 269.61 137.282 253.101 193 248.072L194.091 239.886C195.478 230.04 196.171 225.118 199.557 222.175ZM272.5 157.733C289.5 165.733 291 182.009 279.5 185.733C268 189.457 255.5 175.733 272.5 157.733ZM186.822 311.921C173.943 303.066 146.618 293.849 126.261 323.295C125.717 324.082 125.24 324.951 125.094 325.898C124.831 327.603 124.932 330.51 127.943 332.505C130.418 334.145 132.743 333.83 134.333 333.213C135.84 332.63 136.828 331.267 137.694 329.903C149.765 310.881 169.186 314.804 181.751 324.358C181.88 324.456 182.007 324.552 182.147 324.633C183.03 325.143 186.632 326.787 189.943 322.005C193.449 316.94 187.954 312.723 187.062 312.088C187.042 312.073 187.022 312.059 187.003 312.046C186.943 312.004 186.884 311.964 186.822 311.921ZM341.84 323.295C321.483 293.849 294.157 303.066 281.279 311.921C281.258 311.935 281.238 311.949 281.219 311.962C281.158 312.004 281.1 312.044 281.038 312.088C280.147 312.723 274.651 316.94 278.158 322.005C281.468 326.787 285.07 325.143 285.954 324.633C286.094 324.552 286.221 324.456 286.349 324.358C298.915 314.804 318.336 310.881 330.407 329.903C331.273 331.267 332.261 332.63 333.768 333.213C335.358 333.83 337.682 334.145 340.158 332.505C343.168 330.51 343.27 327.603 343.007 325.898C342.861 324.951 342.384 324.082 341.84 323.295Z" fill="#FC6F88"/>
</g>
<path d="M456.365 96.7022C424.885 164.951 349.775 188.863 318.242 154.839C285.297 119.292 313.239 74.4491 345.545 70.9031C375.918 67.5693 400.319 100.385 450.432 89.8358C454.501 88.9792 458.107 92.9262 456.365 96.7022Z" fill="#23D67D"/>
<defs>
<filter id="filter0_i_656_14395" x="47" y="66" width="407.899" height="365.284" filterUnits="userSpaceOnUse" color-interpolation-filters="sRGB">
<feFlood flood-opacity="0" result="BackgroundImageFix"/>
<feBlend mode="normal" in="SourceGraphic" in2="BackgroundImageFix" result="shape"/>
<feColorMatrix in="SourceAlpha" type="matrix" values="0 0 0 0 0 0 0 0 0 0 0 0 0 0 0 0 0 0 127 0" result="hardAlpha"/>
<feOffset dy="-6"/>
<feGaussianBlur stdDeviation="25"/>
<feComposite in2="hardAlpha" operator="arithmetic" k2="-1" k3="1"/>
<feColorMatrix type="matrix" values="0 0 0 0 0.135045 0 0 0 0 0.182203 0 0 0 0 0.606622 0 0 0 0.12 0"/>
<feBlend mode="normal" in2="shape" result="effect1_innerShadow_656_14395"/>
</filter>
</defs>
</svg>
