<svg width="12" height="17" viewBox="0 0 12 17" fill="none" xmlns="http://www.w3.org/2000/svg">
<path d="M1.66699 0.119141H10.2539C11.2031 0.119141 11.7568 0.637695 11.7568 1.5957V1.85938C11.7656 4.31152 9.11133 6.30664 8.03906 7.32617C7.72266 7.64258 7.53809 7.92383 7.53809 8.3457C7.53809 8.76758 7.71387 9.03125 8.03906 9.35645C9.10254 10.3936 11.7568 12.292 11.7568 14.8232V15.0693C11.7568 16.0273 11.2031 16.5459 10.2539 16.5459H1.66699C0.744141 16.5459 0.234375 16.0273 0.234375 15.1309V14.8232C0.234375 12.292 2.88867 10.3936 3.94336 9.35645C4.27734 9.03125 4.45312 8.76758 4.45312 8.3457C4.45313 7.92383 4.26855 7.64258 3.94336 7.32617C2.87988 6.30664 0.234375 4.31152 0.234375 1.85938V1.53418C0.234375 0.637695 0.744141 0.119141 1.66699 0.119141ZM2.66016 1.50781C2.20313 1.50781 2.05371 2.02637 2.47559 2.34277L5.4375 4.56641C5.53418 4.63672 5.5957 4.70703 5.5957 4.83008L5.5957 9.1543C5.5957 9.62012 5.49023 9.85742 5.14746 10.1562C4.68164 10.5605 3.70605 11.2725 3.24902 11.8789C3.07324 12.1162 3.09082 12.3096 3.30176 12.3096L8.68066 12.3096C8.8916 12.3096 8.91797 12.1162 8.74219 11.8789C8.28516 11.2725 7.30957 10.5605 6.83496 10.1563C6.49219 9.86621 6.39551 9.62012 6.39551 9.1543V4.83008C6.39551 4.70703 6.45703 4.63672 6.55371 4.56641L9.51562 2.34277C9.94629 2.02637 9.7793 1.50781 9.33105 1.50781H2.66016Z" fill="#1C1C1E" fill-opacity="0.4"/>
</svg>
