<svg width="24" height="21" viewBox="0 0 24 21" fill="none" xmlns="http://www.w3.org/2000/svg">
<path d="M0.92284 9.78223C0.92284 10.1626 1.21972 10.5244 1.72069 10.5244C1.98046 10.5244 2.19384 10.3853 2.38866 10.2275L11.6753 2.43457C11.8794 2.24902 12.1299 2.24902 12.334 2.43457L21.6206 10.2275C21.8061 10.3853 22.0195 10.5244 22.2793 10.5244C22.7153 10.5244 23.0679 10.2554 23.0679 9.81006C23.0679 9.53174 22.9751 9.34619 22.7803 9.1792L20.1826 6.98975V3.27881C20.1826 2.87061 19.9228 2.61084 19.5146 2.61084H18.522C18.123 2.61084 17.854 2.87061 17.854 3.27881V5.03223L13.1225 1.06152C12.436 0.477051 11.5825 0.477051 10.8867 1.06152L1.21972 9.1792C1.01561 9.34619 0.92284 9.56885 0.92284 9.78223ZM3.81737 18.0669C3.81737 19.3472 4.59667 20.1079 5.90477 20.1079H18.1045C19.4126 20.1079 20.1826 19.3472 20.1826 18.0669V10.71L12.5566 4.31787C12.2041 4.021 11.7866 4.03027 11.4433 4.31787L3.81737 10.71V18.0669ZM14.3935 18.6143H9.60643V12.4819C9.60643 12.0552 9.89403 11.7769 10.3208 11.7769H13.6885C14.1152 11.7769 14.3935 12.0552 14.3935 12.4819V18.6143Z" fill="#979592"/>
</svg>
