<svg width="24" height="21" viewBox="0 0 24 21" fill="none" xmlns="http://www.w3.org/2000/svg">
<path d="M0.923328 9.78223C0.923328 10.1626 1.2202 10.5244 1.72118 10.5244C1.98095 10.5244 2.19432 10.3853 2.38915 10.2275L11.6758 2.43457C11.8799 2.24902 12.1304 2.24902 12.3345 2.43457L21.6211 10.2275C21.8066 10.3853 22.02 10.5244 22.2798 10.5244C22.7158 10.5244 23.0683 10.2554 23.0683 9.81006C23.0683 9.53174 22.9756 9.34619 22.7808 9.1792L20.1831 6.98975V3.27881C20.1831 2.87061 19.9233 2.61084 19.5151 2.61084H18.5224C18.1235 2.61084 17.8545 2.87061 17.8545 3.27881V5.03223L13.123 1.06152C12.4365 0.477051 11.583 0.477051 10.8872 1.06152L1.2202 9.1792C1.0161 9.34619 0.923328 9.56885 0.923328 9.78223ZM3.81786 18.0669C3.81786 19.3472 4.59716 20.1079 5.90526 20.1079H18.105C19.4131 20.1079 20.1831 19.3472 20.1831 18.0669V10.71L12.5571 4.31787C12.2046 4.021 11.7871 4.03027 11.4438 4.31787L3.81786 10.71V18.0669ZM14.394 18.6143H9.60692V12.4819C9.60692 12.0552 9.89452 11.7769 10.3213 11.7769H13.689C14.1157 11.7769 14.394 12.0552 14.394 12.4819V18.6143Z" fill="#1C1C1E"/>
</svg>
