<svg width="22" height="22" viewBox="0 0 22 22" fill="none" xmlns="http://www.w3.org/2000/svg">
<path d="M5.17012 17.1299C5.36278 17.3225 5.63002 17.4282 5.90969 17.422H14.0759C14.3929 17.4158 14.6291 17.3163 14.8031 17.1423C15.2008 16.7446 15.207 16.179 14.8279 15.7999C14.6291 15.601 14.3805 15.514 14.1319 15.514L11.3166 15.4954L7.86735 15.6507L9.39619 14.2959L16.9285 6.76357C17.3449 6.34718 17.3449 5.77542 16.9348 5.36524C16.5308 4.96128 15.959 4.96128 15.5426 5.37767L8.01029 12.91L6.65546 14.4389L6.81083 10.9896L6.79219 8.17434C6.79219 7.92574 6.70518 7.67715 6.50631 7.47828C6.1272 7.09917 5.56166 7.10539 5.16391 7.50314C4.9899 7.67715 4.89046 7.91331 4.88424 8.20541V16.3965C4.87803 16.6762 4.98368 16.9434 5.17012 17.1299Z" fill="#23D67D"/>
</svg>
