<svg width="10" height="18" viewBox="0 0 10 18" fill="none" xmlns="http://www.w3.org/2000/svg">
<path d="M5 0.574219C2.50488 0.574219 0.522461 2.56348 0.522461 5.04492C0.522461 6.88379 1.60254 8.51074 3.31152 9.19434V15.8184C3.31152 16.0166 3.37305 16.1943 3.52344 16.3447L4.71289 17.4932C4.86328 17.6436 5.15039 17.6777 5.3418 17.4863L7.49512 15.333C7.69336 15.1348 7.68652 14.8477 7.49512 14.6562L6.25781 13.4326L7.99414 11.6963C8.17188 11.5117 8.17871 11.2246 7.98047 11.0264L6.29199 9.33105C8.33594 8.46289 9.4707 6.89746 9.4707 5.04492C9.4707 2.57031 7.48145 0.574219 5 0.574219ZM5 4.73047C4.33691 4.73047 3.79688 4.19043 3.79688 3.52734C3.79688 2.85742 4.33008 2.32422 5 2.32422C5.66309 2.32422 6.20312 2.86426 6.20312 3.52734C6.20312 4.19043 5.66309 4.73047 5 4.73047Z" fill="#2D4E6C"/>
</svg>
