<svg width="15" height="13" viewBox="0 0 15 13" fill="none" xmlns="http://www.w3.org/2000/svg">
<path d="M3.42773 12.5176C3.70898 12.7285 4.05469 12.6582 4.45312 12.3711L7.5 10.1328L10.541 12.3711C10.9395 12.6582 11.2852 12.7285 11.5664 12.5176C11.8418 12.3066 11.9004 11.9609 11.7422 11.498L10.541 7.92383L13.6113 5.7207C14.0098 5.43945 14.1738 5.12305 14.0625 4.79492C13.9512 4.4668 13.6406 4.30273 13.1484 4.30859L9.38672 4.33789L8.23828 0.740234C8.08594 0.271484 7.8457 0.0195312 7.5 0.0195312C7.14844 0.0195312 6.9082 0.271484 6.75586 0.740234L5.61328 4.33789L1.8457 4.30859C1.35352 4.30273 1.04297 4.4668 0.931641 4.78906C0.820312 5.12305 0.990234 5.43945 1.38281 5.7207L4.45312 7.92383L3.25195 11.498C3.09375 11.9609 3.15234 12.3066 3.42773 12.5176ZM7.5 8.90234V1.78906C7.51172 1.78906 7.52344 1.80078 7.5293 1.83594L8.46094 5.01172C8.54883 5.31055 8.70703 5.41016 9.01758 5.39844L12.3281 5.32227C12.3633 5.32227 12.375 5.32227 12.3809 5.33984C12.3867 5.35156 12.375 5.36328 12.3516 5.38086L9.61523 7.25586C9.3457 7.4375 9.31055 7.61328 9.41602 7.90625L10.5176 11.0293C10.5293 11.0645 10.5293 11.0703 10.5176 11.082C10.5117 11.0938 10.4941 11.0879 10.4707 11.0703L7.8457 9.04297C7.72266 8.94922 7.61133 8.90234 7.5 8.90234Z" fill="#8E8E93"/>
</svg>
