<svg width="33" height="23" viewBox="0 0 33 23" fill="none" xmlns="http://www.w3.org/2000/svg">
<path d="M18.1953 22.2734C18.9922 22.2734 19.5664 21.6875 19.5664 20.9023V16.4258H19.9062C24.4531 16.4258 27.3125 17.5742 29.3633 21.4062C29.7734 22.1562 30.3125 22.2734 30.8047 22.2734C31.4258 22.2734 32.0117 21.7109 32.0117 20.7031C32.0117 12.043 28.332 6.64062 19.9062 6.64062H19.5664V2.21094C19.5664 1.42578 18.9922 0.78125 18.1719 0.78125C17.5977 0.78125 17.2109 1.02734 16.5898 1.61328L7.34375 10.2617C6.91016 10.6602 6.74609 11.1055 6.74609 11.5273C6.74609 11.9258 6.91016 12.3828 7.34375 12.7812L16.5898 21.5117C17.1523 22.0391 17.6211 22.2734 18.1953 22.2734ZM12.3711 22.2852C13.168 22.2852 13.7422 21.8047 13.7422 21.2656V20.8672L6.21875 13.918C5.50391 13.2617 5.08203 12.4297 5.08203 11.5391C5.08203 10.6484 5.48047 9.81641 6.21875 9.14844L13.7422 2.25781V1.85938C13.7422 1.29688 13.168 0.792969 12.3477 0.792969C11.7734 0.792969 11.3867 1.03906 10.7656 1.625L1.50781 10.2734C1.0625 10.707 0.921875 11.1406 0.921875 11.5391C0.921875 11.9258 1.0625 12.3711 1.50781 12.793L10.7656 21.5234C11.3164 22.0508 11.7969 22.2852 12.3711 22.2852Z" fill="#23D67D"/>
</svg>
