<?xml version="1.0" encoding="iso-8859-1"?>
<!-- Generator: Adobe Illustrator 19.0.0, SVG Export Plug-In . SVG Version: 6.00 Build 0)  -->
<svg version="1.1" id="Layer_1" xmlns="http://www.w3.org/2000/svg" xmlns:xlink="http://www.w3.org/1999/xlink" x="0px" y="0px"
	 viewBox="0 0 454.831 454.831" style="enable-background:new 0 0 454.831 454.831;" xml:space="preserve">
<g id="XMLID_374_">
	<g>
		<path d="M453.253,229.07c-3.201-7.727-10.674-12.721-19.038-12.721h-27c-2.776-50.306-23.836-97.246-59.92-133.09
			c-38.468-38.212-89.439-59.257-143.523-59.257C91.411,24.003,0,115.414,0,227.774c0,51.138,19.097,100.073,53.771,137.791
			c34.461,37.485,81.2,60.625,131.609,65.157c15.425,1.385,28.391-10.857,28.391-25.934V340.66c0-12.881-9.627-23.957-22.393-25.763
			c-43.1-6.098-75.601-43.553-75.601-87.124c0-48.52,39.474-87.993,87.994-87.993c44.393,0,81.583,33.518,87.24,76.569h-24.005
			c-8.364,0-15.837,4.993-19.038,12.721c-3.2,7.727-1.447,16.542,4.467,22.457l83.605,83.603c3.892,3.892,9.066,6.036,14.571,6.036
			c5.504,0,10.679-2.144,14.57-6.035l83.604-83.604C454.7,245.612,456.453,236.798,453.253,229.07z"/>
	</g>
</g>
<g>
</g>
<g>
</g>
<g>
</g>
<g>
</g>
<g>
</g>
<g>
</g>
<g>
</g>
<g>
</g>
<g>
</g>
<g>
</g>
<g>
</g>
<g>
</g>
<g>
</g>
<g>
</g>
<g>
</g>
</svg>
