<svg width="18" height="16" viewBox="0 0 18 16" fill="none" xmlns="http://www.w3.org/2000/svg">
    <path
        d="M16.9912 7.24414H16.0342C15.6309 3.77832 12.623 0.996094 9 0.996094C6.99707 0.996094 5.17871 1.87109 3.9209 3.23828C3.58594 3.56641 3.59961 4.00391 3.87305 4.25684C4.15332 4.5166 4.55664 4.5166 4.89844 4.20215C5.91699 3.10156 7.37988 2.41113 9 2.41113C11.8848 2.41113 14.2158 4.52344 14.6055 7.24414H13.5596C13.0332 7.24414 12.8896 7.63379 13.1973 8.05762L14.8311 10.3682C15.084 10.71 15.4668 10.7168 15.7129 10.3682L17.3535 8.06445C17.6611 7.63379 17.5244 7.24414 16.9912 7.24414ZM1.00879 8.8916H1.97266C2.37598 12.3574 5.38379 15.1396 9 15.1396C11.0166 15.1396 12.835 14.2578 14.0928 12.8906C14.4209 12.5625 14.4072 12.125 14.1338 11.8721C13.8535 11.6123 13.457 11.6123 13.1084 11.9336C12.1035 13.0342 10.6406 13.7246 9 13.7246C6.12207 13.7246 3.79102 11.6123 3.40137 8.8916H4.44043C4.95996 8.8916 5.11035 8.50195 4.80273 8.07812L3.16211 5.76758C2.91602 5.42578 2.5332 5.41895 2.28711 5.76758L0.646484 8.07129C0.332031 8.50195 0.475586 8.8916 1.00879 8.8916Z"
        fill="#2D4E6C" />
</svg>
