<svg width="20" height="19" viewBox="0 0 20 19" fill="none" xmlns="http://www.w3.org/2000/svg">
<path d="M18.331 6.13818C18.8227 6.13818 19.0825 5.85986 19.0825 5.37744V3.10449C19.0825 1.19336 18.1084 0.237793 16.1694 0.237793H13.8965C13.4141 0.237793 13.145 0.497559 13.145 0.97998C13.145 1.4624 13.4141 1.73145 13.8965 1.73145H16.1416C17.06 1.73145 17.5889 2.22314 17.5889 3.18799V5.37744C17.5889 5.85986 17.8579 6.13818 18.331 6.13818ZM1.65966 6.13818C2.15136 6.13818 2.41112 5.85986 2.41112 5.37744V3.18799C2.41112 2.22314 2.92138 1.73145 3.84911 1.73145H6.09423C6.58593 1.73145 6.85497 1.4624 6.85497 0.97998C6.85497 0.497559 6.58593 0.237793 6.09423 0.237793H3.83055C1.89159 0.237793 0.917469 1.19336 0.917469 3.10449V5.37744C0.917469 5.85986 1.18651 6.13818 1.65966 6.13818ZM5.95507 8.91211H9.18358C9.41552 8.91211 9.59179 8.73584 9.59179 8.51318V5.27539C9.59179 5.05273 9.41552 4.86719 9.18358 4.86719H5.95507C5.72313 4.86719 5.54686 5.05273 5.54686 5.27539V8.51318C5.54686 8.73584 5.72313 8.91211 5.95507 8.91211ZM10.7978 8.91211H14.0264C14.2583 8.91211 14.4346 8.73584 14.4346 8.51318V5.27539C14.4346 5.05273 14.2583 4.86719 14.0264 4.86719H10.7978C10.5659 4.86719 10.3896 5.05273 10.3896 5.27539V8.51318C10.3896 8.73584 10.5659 8.91211 10.7978 8.91211ZM6.35399 8.10498V5.67432H8.78466V8.10498H6.35399ZM11.1968 8.10498V5.67432H13.6274V8.10498H11.1968ZM7.05907 7.3999H8.07958V6.37939H7.05907V7.3999ZM11.9111 7.3999H12.9224V6.37939H11.9111V7.3999ZM5.95507 13.7642H9.18358C9.41552 13.7642 9.59179 13.5879 9.59179 13.356V10.1274C9.59179 9.89551 9.41552 9.71924 9.18358 9.71924H5.95507C5.72313 9.71924 5.54686 9.89551 5.54686 10.1274V13.356C5.54686 13.5879 5.72313 13.7642 5.95507 13.7642ZM10.5102 10.8418H11.5215V9.83057H10.5102V10.8418ZM13.3027 10.8418H14.314V9.83057H13.3027V10.8418ZM6.35399 12.957V10.5264H8.78466V12.957H6.35399ZM7.05907 12.2427H8.07958V11.2314H7.05907V12.2427ZM11.9018 12.2427H12.9224V11.2314H11.9018V12.2427ZM3.83055 18.3936H6.09423C6.58593 18.3936 6.85497 18.1245 6.85497 17.6514C6.85497 17.1689 6.58593 16.8999 6.09423 16.8999H3.84911C2.92138 16.8999 2.41112 16.4082 2.41112 15.4434V13.2539C2.41112 12.7622 2.14208 12.4932 1.65966 12.4932C1.17723 12.4932 0.917469 12.7622 0.917469 13.2539V15.5176C0.917469 17.438 1.89159 18.3936 3.83055 18.3936ZM13.8965 18.3936H16.1694C18.1084 18.3936 19.0825 17.4287 19.0825 15.5176V13.2539C19.0825 12.7622 18.8135 12.4932 18.331 12.4932C17.8486 12.4932 17.5889 12.7622 17.5889 13.2539V15.4434C17.5889 16.4082 17.06 16.8999 16.1416 16.8999H13.8965C13.4141 16.8999 13.145 17.1689 13.145 17.6514C13.145 18.1245 13.4141 18.3936 13.8965 18.3936ZM10.5102 13.6436H11.5215V12.6323H10.5102V13.6436ZM13.3027 13.6436H14.314V12.6323H13.3027V13.6436Z" fill="#1C1C1E"/>
</svg>
