<svg width="20" height="20" viewBox="0 0 20 20" fill="none" xmlns="http://www.w3.org/2000/svg">
<path d="M9.10692 20.0005H10.814C11.2964 20.0005 11.6489 19.7129 11.751 19.2397L12.2334 17.1987C12.5952 17.0781 12.9477 16.939 13.2539 16.7905L15.0444 17.8853C15.4433 18.1357 15.8979 18.0986 16.2319 17.7646L17.4287 16.5771C17.7627 16.2432 17.8091 15.7607 17.54 15.3618L16.4453 13.5898C16.603 13.2651 16.7422 12.9312 16.8442 12.5972L18.9038 12.1055C19.3769 12.0034 19.6553 11.6509 19.6553 11.1685V9.48926C19.6553 9.01611 19.3769 8.66357 18.9038 8.56152L16.8628 8.06982C16.7422 7.68945 16.5937 7.34619 16.4639 7.05859L17.5586 5.25879C17.8183 4.85986 17.7905 4.40527 17.4473 4.07129L16.2319 2.87451C15.8887 2.55908 15.4805 2.50342 15.0723 2.73535L13.2539 3.85791C12.957 3.7002 12.6138 3.56104 12.2334 3.44043L11.751 1.37158C11.6489 0.898438 11.2964 0.61084 10.814 0.61084H9.10692C8.6245 0.61084 8.27196 0.898438 8.16063 1.37158L7.67821 3.42188C7.3164 3.54248 6.96386 3.68164 6.64843 3.84863L4.84862 2.73535C4.44042 2.50342 4.02294 2.5498 3.67968 2.87451L2.47362 4.07129C2.13036 4.40527 2.09325 4.85986 2.3623 5.25879L3.44774 7.05859C3.32714 7.34619 3.1787 7.68945 3.0581 8.06982L1.01708 8.56152C0.543936 8.66357 0.265615 9.01611 0.265615 9.48926V11.1685C0.265615 11.6509 0.543936 12.0034 1.01708 12.1055L3.07665 12.5972C3.1787 12.9312 3.31786 13.2651 3.4663 13.5898L2.38085 15.3618C2.10253 15.7607 2.15819 16.2432 2.49218 16.5771L3.67968 17.7646C4.01366 18.0986 4.47753 18.1357 4.87646 17.8853L6.65771 16.7905C6.97313 16.939 7.3164 17.0781 7.67821 17.1987L8.16063 19.2397C8.27196 19.7129 8.6245 20.0005 9.10692 20.0005ZM9.96044 13.5806C8.16063 13.5806 6.68554 12.0962 6.68554 10.2964C6.68554 8.50586 8.16063 7.03076 9.96044 7.03076C11.7602 7.03076 13.2353 8.50586 13.2353 10.2964C13.2353 12.0962 11.7602 13.5806 9.96044 13.5806Z" fill="#1C1C1E"/>
</svg>
