<svg width="20" height="20" viewBox="0 0 20 20" fill="none" xmlns="http://www.w3.org/2000/svg">
<path d="M9.10692 19.9985H10.814C11.2964 19.9985 11.6489 19.7109 11.751 19.2378L12.2334 17.1968C12.5952 17.0762 12.9477 16.937 13.2539 16.7886L15.0444 17.8833C15.4433 18.1338 15.8979 18.0967 16.2319 17.7627L17.4287 16.5752C17.7627 16.2412 17.8091 15.7588 17.54 15.3599L16.4453 13.5879C16.603 13.2632 16.7422 12.9292 16.8442 12.5952L18.9038 12.1035C19.3769 12.0015 19.6553 11.6489 19.6553 11.1665V9.4873C19.6553 9.01416 19.3769 8.66162 18.9038 8.55957L16.8628 8.06787C16.7422 7.6875 16.5937 7.34424 16.4639 7.05664L17.5586 5.25684C17.8183 4.85791 17.7905 4.40332 17.4473 4.06934L16.2319 2.87256C15.8887 2.55713 15.4805 2.50146 15.0723 2.7334L13.2539 3.85596C12.957 3.69824 12.6138 3.55908 12.2334 3.43848L11.751 1.36963C11.6489 0.896484 11.2964 0.608887 10.814 0.608887H9.10692C8.6245 0.608887 8.27196 0.896484 8.16063 1.36963L7.67821 3.41992C7.3164 3.54053 6.96386 3.67969 6.64843 3.84668L4.84862 2.7334C4.44042 2.50146 4.02294 2.54785 3.67968 2.87256L2.47362 4.06934C2.13036 4.40332 2.09325 4.85791 2.3623 5.25684L3.44774 7.05664C3.32714 7.34424 3.1787 7.6875 3.0581 8.06787L1.01708 8.55957C0.543936 8.66162 0.265615 9.01416 0.265615 9.4873V11.1665C0.265615 11.6489 0.543936 12.0015 1.01708 12.1035L3.07665 12.5952C3.1787 12.9292 3.31786 13.2632 3.4663 13.5879L2.38085 15.3599C2.10253 15.7588 2.15819 16.2412 2.49218 16.5752L3.67968 17.7627C4.01366 18.0967 4.47753 18.1338 4.87646 17.8833L6.65771 16.7886C6.97313 16.937 7.3164 17.0762 7.67821 17.1968L8.16063 19.2378C8.27196 19.7109 8.6245 19.9985 9.10692 19.9985ZM9.96044 13.5786C8.16063 13.5786 6.68554 12.0942 6.68554 10.2944C6.68554 8.50391 8.16063 7.02881 9.96044 7.02881C11.7602 7.02881 13.2353 8.50391 13.2353 10.2944C13.2353 12.0942 11.7602 13.5786 9.96044 13.5786Z" fill="#979592"/>
</svg>
