<svg width="20" height="20" viewBox="0 0 20 20" fill="none" xmlns="http://www.w3.org/2000/svg">
<path d="M3.79442 19.2764C4.21629 19.5928 4.73485 19.4873 5.33251 19.0566L9.90282 15.6992L14.4643 19.0566C15.062 19.4873 15.5806 19.5928 16.0024 19.2764C16.4155 18.96 16.5034 18.4414 16.2661 17.7471L14.4643 12.3857L19.0698 9.08105C19.6675 8.65918 19.9136 8.18457 19.7466 7.69238C19.5796 7.2002 19.1138 6.9541 18.3755 6.96289L12.7329 7.00684L11.0102 1.61035C10.7817 0.907227 10.4214 0.529297 9.90282 0.529297C9.37547 0.529297 9.01512 0.907227 8.78661 1.61035L7.07274 7.00684L1.42137 6.96289C0.683092 6.9541 0.217271 7.2002 0.0502792 7.68359C-0.116713 8.18457 0.13817 8.65918 0.727037 9.08105L5.33251 12.3857L3.53075 17.7471C3.29344 18.4414 3.38133 18.96 3.79442 19.2764ZM9.90282 13.8535V3.18359C9.9204 3.18359 9.93797 3.20117 9.94676 3.25391L11.3442 8.01758C11.4761 8.46582 11.7134 8.61523 12.1792 8.59766L17.145 8.4834C17.1977 8.4834 17.2153 8.4834 17.2241 8.50977C17.2329 8.52734 17.2153 8.54492 17.1802 8.57129L13.0757 11.3838C12.6714 11.6562 12.6186 11.9199 12.7768 12.3594L14.4292 17.0439C14.4468 17.0967 14.4468 17.1055 14.4292 17.123C14.4204 17.1406 14.394 17.1318 14.3589 17.1055L10.4214 14.0645C10.2368 13.9238 10.0698 13.8535 9.90282 13.8535Z" fill="#23D67D"/>
<path d="M16.0112 19.2764C15.5893 19.5928 15.0708 19.4873 14.4731 19.0566L9.90282 15.6992L5.34129 19.0566C4.74364 19.4873 4.22508 19.5928 3.80321 19.2764C3.39012 18.96 3.30223 18.4414 3.53954 17.7471L5.34129 12.3857L0.735826 9.08105C0.13817 8.65918 -0.107924 8.18457 0.0590682 7.69238C0.22606 7.2002 0.691881 6.9541 1.43016 6.96289L7.07274 7.00684L8.7954 1.61035C9.02391 0.907227 9.38426 0.529297 9.90282 0.529297C10.4302 0.529297 10.7905 0.907227 11.019 1.61035L12.7329 7.00684L18.3843 6.96289C19.1225 6.9541 19.5884 7.2002 19.7554 7.68359C19.9223 8.18457 19.6675 8.65918 19.0786 9.08105L14.4731 12.3857L16.2749 17.7471C16.5122 18.4414 16.4243 18.96 16.0112 19.2764ZM9.90282 13.8535V3.18359C9.88524 3.18359 9.86766 3.20117 9.85887 3.25391L8.46141 8.01758C8.32958 8.46582 8.09227 8.61523 7.62645 8.59766L2.66063 8.4834C2.6079 8.4834 2.59032 8.4834 2.58153 8.50977C2.57274 8.52734 2.59032 8.54492 2.62547 8.57129L6.72997 11.3838C7.13426 11.6562 7.187 11.9199 7.02879 12.3594L5.37645 17.0439C5.35887 17.0967 5.35887 17.1055 5.37645 17.123C5.38524 17.1406 5.41161 17.1318 5.44676 17.1055L9.38426 14.0645C9.56883 13.9238 9.73583 13.8535 9.90282 13.8535Z" fill="#23D67D"/>
</svg>
