<svg width="21" height="21" viewBox="0 0 21 21" fill="none" xmlns="http://www.w3.org/2000/svg">
<path d="M13.5087 1.61349L19.5806 7.68536C20.2517 8.35656 20.2766 9.11476 19.5992 9.79218L19.4128 9.97862C17.685 11.7188 14.3974 11.2527 12.9183 11.2154C12.4708 11.2154 12.1414 11.2837 11.8431 11.582C11.5448 11.8804 11.4827 12.1911 11.4827 12.651C11.5013 14.1363 12.0358 17.3556 10.2459 19.1455L10.0719 19.3195C9.39448 19.9969 8.63628 19.972 7.96508 19.3008L1.89321 13.229C1.24066 12.5764 1.24687 11.8493 1.88078 11.2154L2.0983 10.9978C3.88817 9.20798 7.10744 9.74246 8.58656 9.75489C9.05267 9.7611 9.36341 9.69895 9.66172 9.40064C9.96003 9.10233 10.0284 8.77295 10.0222 8.31927C9.99111 6.84636 9.53121 3.56494 11.2651 1.83101L11.4951 1.60106C12.129 0.967152 12.8561 0.960937 13.5087 1.61349ZM13.229 3.2977C12.9058 2.97453 12.4335 3.23556 12.5081 3.7576L13.0301 7.42434C13.0488 7.54242 13.0426 7.63564 12.9556 7.72265L9.89788 10.7803C9.5685 11.1097 9.32612 11.2029 8.87244 11.1719C8.25717 11.1284 7.06393 10.9419 6.31194 11.0476C6.01984 11.0911 5.89555 11.2402 6.0447 11.3894L9.84816 15.1928C9.99732 15.342 10.1527 15.2239 10.1962 14.9318C10.3018 14.1798 10.1154 12.9866 10.0657 12.3651C10.0284 11.9176 10.134 11.6753 10.4634 11.3459L13.5211 8.28819C13.6081 8.20119 13.7013 8.19497 13.8194 8.21362L17.4862 8.73566C18.0144 8.81645 18.263 8.3317 17.9461 8.01474L13.229 3.2977Z" fill="#1C1C1E" fill-opacity="0.4"/>
</svg>
