<svg width="23" height="22" viewBox="0 0 23 22" fill="none" xmlns="http://www.w3.org/2000/svg">
    <path
        d="M17.4275 4.87013C17.2349 4.67747 16.9676 4.57182 16.688 4.57803L8.52171 4.57803C8.20476 4.58425 7.9686 4.68368 7.79458 4.8577C7.39683 5.25545 7.39062 5.82099 7.76972 6.2001C7.9686 6.39897 8.21719 6.48598 8.46578 6.48598L11.2811 6.50462L14.7303 6.34925L13.2015 7.70408L5.66912 15.2364C5.25273 15.6528 5.25273 16.2246 5.66291 16.6348C6.06687 17.0387 6.63863 17.0387 7.05502 16.6223L14.5874 9.08998L15.9422 7.56114L15.7868 11.0104L15.8055 13.8257C15.8055 14.0743 15.8925 14.3228 16.0913 14.5217C16.4705 14.9008 17.036 14.8946 17.4337 14.4969C17.6078 14.3228 17.7072 14.0867 17.7134 13.7946L17.7134 5.60347C17.7196 5.32381 17.614 5.05657 17.4275 4.87013Z"
        fill="#FF3B30" />
</svg>
