<svg width="29" height="21" viewBox="0 0 29 21" fill="none" xmlns="http://www.w3.org/2000/svg">
<path d="M24.8477 0.542969H4.66797C2.21875 0.542969 0.988281 1.76172 0.988281 4.17578V5.26562H28.5273V4.17578C28.5273 1.76172 27.3086 0.542969 24.8477 0.542969ZM5.78125 16.9258C5.08984 16.9258 4.63281 16.457 4.63281 15.8008V13.6328C4.63281 12.9648 5.08984 12.5078 5.78125 12.5078H8.65234C9.34375 12.5078 9.80078 12.9648 9.80078 13.6328V15.8008C9.80078 16.457 9.34375 16.9258 8.65234 16.9258H5.78125ZM4.66797 20.5586H24.8477C27.3086 20.5586 28.5273 19.3516 28.5273 16.9375V7.92578H0.988281V16.9375C0.988281 19.3516 2.21875 20.5586 4.66797 20.5586Z" fill="#23D67D"/>
</svg>
