<svg width="20" height="18" viewBox="0 0 20 18" fill="none" xmlns="http://www.w3.org/2000/svg">
<path d="M3.10059 17.3506H16.8906C18.2529 17.3506 19.1318 16.3398 19.1318 15.1006C19.1318 14.7314 19.0352 14.3535 18.8418 14.002L11.9336 1.66211C11.5117 0.897461 10.7559 0.510742 10 0.510742C9.24414 0.510742 8.47949 0.897461 8.05762 1.66211L1.1582 14.002C0.964844 14.3623 0.859375 14.7314 0.859375 15.1006C0.859375 16.3398 1.73828 17.3506 3.10059 17.3506ZM10.0088 11.3037C9.49023 11.3037 9.19141 11.0137 9.17383 10.4951L9.05078 6.10059C9.0332 5.55566 9.41992 5.17773 10 5.17773C10.5625 5.17773 10.9756 5.56445 10.958 6.10938L10.8174 10.4863C10.7998 11.0225 10.5098 11.3037 10.0088 11.3037ZM10.0088 14.3447C9.41113 14.3447 8.91895 13.9141 8.91895 13.334C8.91895 12.7539 9.40234 12.3232 10.0088 12.3232C10.6064 12.3232 11.0898 12.7539 11.0898 13.334C11.0898 13.9229 10.5977 14.3447 10.0088 14.3447Z" fill="#1C1C1E" fill-opacity="0.4"/>
</svg>
