<svg width="19" height="18" viewBox="0 0 19 18" fill="none" xmlns="http://www.w3.org/2000/svg">
<path d="M2.60059 17.1006H16.3906C17.7529 17.1006 18.6318 16.0898 18.6318 14.8506C18.6318 14.4814 18.5352 14.1035 18.3418 13.752L11.4336 1.41211C11.0117 0.647461 10.2559 0.260742 9.5 0.260742C8.74414 0.260742 7.97949 0.647461 7.55762 1.41211L0.658203 13.752C0.464844 14.1123 0.359375 14.4814 0.359375 14.8506C0.359375 16.0898 1.23828 17.1006 2.60059 17.1006ZM9.50879 11.0537C8.99023 11.0537 8.69141 10.7637 8.67383 10.2451L8.55078 5.85059C8.5332 5.30566 8.91992 4.92773 9.5 4.92773C10.0625 4.92773 10.4756 5.31445 10.458 5.85938L10.3174 10.2363C10.2998 10.7725 10.0098 11.0537 9.50879 11.0537ZM9.50879 14.0947C8.91113 14.0947 8.41895 13.6641 8.41895 13.084C8.41895 12.5039 8.90234 12.0732 9.50879 12.0732C10.1064 12.0732 10.5898 12.5039 10.5898 13.084C10.5898 13.6729 10.0977 14.0947 9.50879 14.0947Z" fill="#F92A2A"/>
</svg>
